<svg width="2048" height="512" viewBox="0 0 2048 512" fill="none" xmlns="http://www.w3.org/2000/svg">
<g clip-path="url(#clip0)">
<rect width="2048" height="512" fill="white"/>
<path d="M2048 0H0V512H2048V0Z" fill="url(#paint0_linear)"/>
<g opacity="0.1">
<path fill-rule="evenodd" clip-rule="evenodd" d="M228.915 132.097C199.69 172.489 223.102 203.808 244.595 237.02C266.088 270.232 285.357 281.025 275.357 326.63C255.306 417.137 325.48 516.225 300.936 541.088C299.128 542.954 296.718 542.825 293.674 541.064C274.183 529.849 233.925 450.631 218.002 410.953C199.795 365.287 146.783 336.504 127.922 299.918C109.034 263.22 141.365 235.636 119.045 192.633C96.6977 149.517 31.0777 146.748 21.1846 106.917C11.3188 67.199 47.105 30.8079 45.6996 -11.7937C44.3794 -54.535 24.8177 -126.399 79.7034 -143.867C134.562 -161.448 165.086 -50.2499 180.399 -35.1674C195.713 -20.0848 242.934 2.96498 256.497 27.5123C269.949 52.0868 258.114 91.5935 228.915 132.097Z" fill="#DBF2F7"/>
<path fill-rule="evenodd" clip-rule="evenodd" d="M276.017 395.106C276.666 441.459 271.603 471.117 284.043 499.862C293.586 522.053 304.977 540.584 295.226 543.543C292.332 544.363 287.682 543.825 280.604 541.616C280.604 541.616 267.54 533.362 244.652 503.225C221.651 473.114 195.357 507.442 145.234 501.868C95.085 496.182 103.709 454.717 87.5654 422.469C71.4214 390.22 29.8333 453.712 -23.6727 423.383C-77.1787 393.054 -34.9513 373.42 -94.5478 320.42C-108.479 308.095 -109.749 297.459 -103.964 288.444L-103.992 288.332C-91.6564 269.045 -46.5421 257.395 -23.7142 252.932C9.61341 246.637 43.1732 204.006 75.8056 239.989C108.465 276.085 109.07 344.337 165.225 345.356C221.268 346.402 275.34 348.64 276.017 395.106Z" fill="#DBF2F7"/>
<path fill-rule="evenodd" clip-rule="evenodd" d="M295.087 543.458C292.333 544.363 288.053 546.828 280.492 541.643C280.492 541.643 267.428 533.39 244.54 503.252C221.539 473.142 195.245 507.47 145.122 501.896C94.9728 496.209 103.597 454.745 87.4533 422.496C71.3093 390.248 29.7212 453.739 -23.7848 423.41C-77.2908 393.081 -35.0634 373.448 -94.6598 320.447C-108.591 308.123 -109.861 297.487 -104.076 288.471C-104.076 288.471 -20.4906 300.089 56.0883 330.892C132.64 361.582 270.183 485.379 295.087 543.458Z" fill="white"/>
<path fill-rule="evenodd" clip-rule="evenodd" d="M175.846 232.631C240.745 414.481 300.796 541.003 300.796 541.003C295.553 540.966 290.324 539.022 286.65 535.154C265.75 513.218 232.049 446.327 217.863 410.868C199.656 365.202 146.643 336.419 127.783 299.833C108.895 263.135 141.225 235.551 118.905 192.547C96.5581 149.431 30.9382 146.662 21.0451 106.832C11.1792 67.1138 46.9654 30.7227 45.56 -11.879C44.2398 -54.6202 24.6782 -126.485 79.5638 -143.953C79.7885 -144.007 111.06 50.7529 175.846 232.631Z" fill="white"/>
</g>
<g opacity="0.1">
<path fill-rule="evenodd" clip-rule="evenodd" d="M1812.22 174.128C1839.55 215.825 1814.72 246.031 1791.71 278.216C1768.71 310.401 1748.96 320.294 1756.85 366.311C1772.7 457.647 1698.03 553.392 1721.4 579.361C1723.12 581.308 1725.54 581.29 1728.66 579.672C1748.65 569.368 1792.52 492.091 1810.25 453.191C1830.55 408.413 1884.83 382.107 1905.36 346.43C1925.92 310.642 1894.9 281.596 1919.18 239.668C1943.49 197.629 2009.17 197.89 2020.89 158.558C2032.58 119.338 1998.51 81.3343 2001.88 38.8429C2005.17 -3.7919 2028.02 -74.6773 1974 -94.6588C1920.01 -114.751 1884.39 -5.08009 1868.4 9.27997C1852.41 23.64 1804.17 44.4867 1789.49 68.3822C1774.92 92.31 1784.92 132.321 1812.22 174.128Z" fill="#DBF2F7"/>
<path fill-rule="evenodd" clip-rule="evenodd" d="M1753.03 434.684C1750.24 480.958 1753.93 510.817 1740.18 538.958C1729.63 560.685 1717.39 578.671 1727 582.077C1729.85 583.03 1734.52 582.707 1741.69 580.826C1741.69 580.826 1755.12 573.184 1779.38 544.135C1803.74 515.117 1828.42 550.622 1878.75 547.366C1929.11 543.999 1922.41 502.181 1940.02 470.712C1957.64 439.242 1996.25 504.585 2051.1 476.756C2105.95 448.928 2064.67 427.367 2126.65 377.173C2141.13 365.504 2142.89 354.938 2137.53 345.665L2137.56 345.555C2126.13 325.719 2081.6 312.001 2059 306.489C2026 298.664 1994.44 254.529 1960.19 288.969C1925.9 323.52 1922.14 391.671 1866 390.098C1809.97 388.558 1755.85 388.299 1753.03 434.684Z" fill="#DBF2F7"/>
<path fill-rule="evenodd" clip-rule="evenodd" d="M1727.14 581.998C1729.85 583.03 1734.01 585.689 1741.8 580.859C1741.8 580.859 1755.23 573.217 1779.49 544.167C1803.85 515.15 1828.53 550.654 1878.86 547.399C1929.22 544.032 1922.52 502.214 1940.13 470.744C1957.75 439.275 1996.36 504.617 2051.21 476.789C2106.06 448.961 2064.78 427.4 2126.76 377.206C2141.24 365.537 2143 354.971 2137.64 345.698C2137.64 345.698 2053.61 353.447 1975.69 380.684C1897.8 407.81 1754.69 525.13 1727.14 581.998Z" fill="white"/>
<path fill-rule="evenodd" clip-rule="evenodd" d="M1860.59 277.003C1787.37 455.666 1721.55 579.283 1721.55 579.283C1726.79 579.487 1732.1 577.786 1735.95 574.092C1757.84 553.144 1794.59 487.879 1810.4 453.112C1830.69 408.335 1884.98 382.028 1905.5 346.351C1926.06 310.563 1895.04 281.518 1919.32 239.589C1943.63 197.55 2009.31 197.811 2021.03 158.48C2032.72 119.259 1998.65 81.2557 2002.02 38.7642C2005.31 -3.87057 2028.17 -74.756 1974.14 -94.7375C1973.92 -94.8023 1933.7 98.3077 1860.59 277.003Z" fill="white"/>
</g>
<g opacity="0.1">
<path fill-rule="evenodd" clip-rule="evenodd" d="M317.164 222.662C344.502 250.13 330.324 277.017 317.85 305.123C305.376 333.23 291.89 343.854 305.099 377.656C331.471 444.715 289.61 529.305 311.47 545.418C313.084 546.632 314.919 546.24 317.043 544.519C330.648 533.545 351.95 467.838 359.363 435.443C367.804 398.173 405.015 369.644 415.059 339.266C425.111 308.798 396.942 291.541 408.864 255.816C420.792 220.001 470.839 209.917 473.604 178.135C476.362 146.443 444.472 122.843 440.384 89.9627C436.214 56.9861 442.518 -0.56343 398.258 -7.31866C354.006 -14.1635 344.056 74.9156 334.128 88.3532C324.199 101.791 290.739 125.215 283.302 145.708C275.955 166.207 289.833 195.105 317.164 222.662Z" fill="#DBF2F7"/>
<path fill-rule="evenodd" clip-rule="evenodd" d="M312.898 430.311C318.021 465.98 325.505 488.137 319.44 511.716C314.805 529.912 308.306 545.522 316.151 546.61C318.473 546.889 321.978 545.912 327.145 543.357C327.145 543.357 336.174 535.436 350.092 509.521C364.1 483.612 388.452 506.78 426.26 496.422C464.075 485.973 452.424 455.183 460.908 428.465C469.392 401.747 509.024 445.451 546.427 415.675C583.83 385.9 549.027 375.947 588.357 328.025C597.559 316.873 597.244 308.553 591.709 302.332L591.716 302.243C579.906 288.93 543.855 285.457 525.786 284.799C499.434 284.008 468.497 255.346 447.806 286.932C427.108 318.607 434.921 371.084 391.929 378.677C349.026 386.277 307.782 394.553 312.898 430.311Z" fill="#DBF2F7"/>
<path fill-rule="evenodd" clip-rule="evenodd" d="M316.248 546.528C318.473 546.89 322.057 548.263 327.234 543.365C327.234 543.365 336.263 535.444 350.182 509.528C364.19 483.62 388.542 506.788 426.349 496.429C464.164 485.981 452.514 455.191 460.998 428.472C469.482 401.754 509.113 445.459 546.517 415.683C583.92 385.907 549.117 375.954 588.447 328.033C597.648 316.88 597.333 308.56 591.798 302.34C591.798 302.34 529.031 321.397 473.97 354.335C418.916 387.183 328.325 498.915 316.248 546.528Z" fill="white"/>
<path fill-rule="evenodd" clip-rule="evenodd" d="M370.103 293.415C342.329 440.91 311.567 545.336 311.567 545.336C315.588 544.671 319.367 542.545 321.719 539.129C335.105 519.752 352.868 464.307 359.46 435.361C367.9 398.09 405.112 369.561 415.156 339.183C425.208 308.716 397.039 291.458 408.96 255.733C420.889 219.919 470.936 209.834 473.701 178.053C476.459 146.361 444.569 122.76 440.481 89.8804C436.311 56.9037 442.615 -0.645808 398.355 -7.40103C398.176 -7.4156 397.787 145.913 370.103 293.415Z" fill="white"/>
</g>
<path fill-rule="evenodd" clip-rule="evenodd" d="M1171.52 388.635C1171.52 364.556 1191.25 345.065 1215.61 345.065H1314.16C1289.8 345.065 1270.07 325.534 1270.07 301.496C1270.07 277.417 1289.8 257.926 1314.16 257.926H1408.61C1408.37 257.926 1408.17 257.885 1407.92 257.885C1424.04 257.52 1437.04 244.526 1437.04 228.487C1437.04 212.448 1424.08 199.454 1407.92 199.089C1408.17 199.089 1408.37 199.048 1408.61 199.048H1341.98C1317.62 199.048 1297.84 179.517 1297.84 155.479C1297.84 131.399 1317.57 111.909 1341.98 111.909H1508.95C1484.58 111.909 1464.85 92.3777 1464.85 68.3392C1464.85 44.2602 1484.58 24.7696 1508.95 24.7696H1649.12C1673.48 24.7696 1693.22 44.3008 1693.22 68.3392C1693.22 92.4183 1673.48 111.909 1649.12 111.909H1724.85C1749.21 111.909 1768.94 131.44 1768.94 155.479C1768.94 179.558 1749.21 199.048 1724.85 199.048H1663.45C1663.98 199.048 1664.51 199.089 1665.04 199.129C1649.32 199.941 1636.81 212.732 1636.81 228.487C1636.81 244.201 1649.32 257.033 1665.04 257.845C1664.51 257.885 1663.98 257.926 1663.45 257.926H1741.41C1765.78 257.926 1785.51 277.457 1785.51 301.496C1785.51 325.575 1765.78 345.065 1741.41 345.065H1818.65C1843.01 345.065 1862.74 364.596 1862.74 388.635C1862.74 412.673 1843.01 432.205 1818.65 432.205H1753.72C1778.08 432.205 1797.86 451.736 1797.86 475.774C1797.86 499.853 1778.12 519.344 1753.72 519.344H1693.01H1608.07H1436.95C1461.32 519.344 1481.05 499.813 1481.05 475.774C1481.05 451.695 1461.32 432.205 1436.95 432.205H1215.65C1191.29 432.205 1171.52 412.714 1171.52 388.635Z" fill="#F472B6"/>
<path fill-rule="evenodd" clip-rule="evenodd" d="M1604.66 104.641C1614.03 84.216 1587.07 63.7915 1600.59 43.3669C1601.24 42.3924 1602.3 41.8239 1603.44 41.8239H1638.76C1641.28 41.8239 1642.86 44.4227 1641.85 46.6966C1632.47 67.1211 1659.43 87.5456 1645.91 107.97C1645.26 108.945 1644.2 109.513 1643.07 109.513H1607.74C1605.22 109.513 1603.6 106.914 1604.66 104.641Z" fill="white"/>
<path d="M1674.5 438.701C1690.82 411.699 1700.89 384.128 1678.15 345.35C1655.61 306.937 1655.74 217.28 1710.55 204.246C1738 197.708 1748.15 217.524 1742.15 232.629C1728.5 266.697 1650.17 223.33 1650.17 156.778" stroke="#FAF8F6" stroke-width="1.86604" stroke-miterlimit="22.9256" stroke-linecap="round" stroke-linejoin="round" stroke-dasharray="3.73 3.73"/>
<path d="M1281 420.922C1281 364.422 1241.5 275.922 1190 238.922C1138.5 201.922 983 162.922 1016.5 80.9221C1033.25 39.9221 1077.59 77.9221 1062.5 98.9221C1044.89 123.422 987.5 143 830 -51.5" stroke="#FAF8F6" stroke-width="1.86604" stroke-miterlimit="22.9256" stroke-linecap="round" stroke-linejoin="round" stroke-dasharray="3.73 3.73"/>
<path d="M-59.191 262.344C-12.4543 263.031 63.1233 264.141 90.2228 194.197C102.387 162.801 106.31 59.3437 203.506 60.7714C243.211 61.3546 216.418 94.9332 200.317 87.5026C184.216 80.072 179.001 -60.2894 310.557 -73.5103" stroke="#FAF8F6" stroke-width="1.86604" stroke-miterlimit="22.9256" stroke-linecap="round" stroke-linejoin="round" stroke-dasharray="3.73 3.73"/>
<path fill-rule="evenodd" clip-rule="evenodd" d="M1313.64 432.245C1300.32 443.615 1305.72 456.243 1310.31 469.359C1314.89 482.474 1320.58 487.753 1313.39 502.493C1299.06 531.728 1314.81 571.359 1304.38 577.816C1303.61 578.303 1302.79 578.059 1301.9 577.207C1296.18 571.765 1288.99 541.393 1286.84 526.531C1284.4 509.436 1268.69 495.224 1265.28 481.175C1261.86 467.085 1275.18 460.344 1271.12 443.818C1267.06 427.251 1244.89 420.876 1244.81 406.461C1244.73 392.086 1259.96 382.625 1263 367.967C1266.09 353.268 1265.36 327.118 1285.54 325.696C1305.72 324.235 1306.94 364.718 1310.92 371.134C1314.89 377.55 1329.11 389.325 1331.71 398.827C1334.26 408.329 1326.95 420.835 1313.64 432.245Z" fill="#DBF2F7"/>
<path fill-rule="evenodd" clip-rule="evenodd" d="M1307.95 525.922C1304.34 541.798 1300.16 551.503 1302.02 562.345C1303.44 570.71 1305.8 577.978 1302.23 578.181C1301.17 578.222 1299.63 577.653 1297.39 576.313C1297.39 576.313 1293.62 572.415 1288.3 560.233C1282.94 548.052 1271.12 557.594 1254.47 551.544C1237.83 545.453 1244.2 532.013 1241.36 519.669C1238.52 507.324 1219.07 525.556 1203.31 510.776C1187.56 495.996 1203.6 492.788 1187.64 469.764C1183.9 464.405 1184.35 460.669 1187.07 458.07V458.029C1192.88 452.467 1209.24 452.223 1217.4 452.588C1229.3 453.197 1244.28 441.422 1252.44 456.405C1260.61 471.429 1255.16 494.777 1274.25 499.772C1293.29 504.766 1311.57 510.004 1307.95 525.922Z" fill="#DBF2F7"/>
<path fill-rule="evenodd" clip-rule="evenodd" d="M1302.19 578.14C1301.17 578.222 1299.51 578.709 1297.35 576.313C1297.35 576.313 1293.58 572.415 1288.26 560.233C1282.9 548.052 1271.08 557.594 1254.43 551.544C1237.79 545.453 1244.16 532.013 1241.32 519.669C1238.48 507.325 1219.03 525.556 1203.27 510.776C1187.52 495.996 1203.55 492.788 1187.6 469.765C1183.86 464.405 1184.31 460.669 1187.03 458.07C1187.03 458.07 1214.6 468.952 1238.19 485.804C1261.78 502.614 1298.49 556.254 1302.19 578.14Z" fill="white"/>
<path fill-rule="evenodd" clip-rule="evenodd" d="M1287.2 462.171C1294.31 529.617 1304.34 577.775 1304.34 577.775C1302.55 577.328 1300.93 576.232 1299.99 574.608C1294.67 565.39 1288.7 539.768 1286.8 526.49C1284.36 509.395 1268.65 495.184 1265.23 481.134C1261.82 467.044 1275.14 460.303 1271.08 443.777C1267.02 427.21 1244.85 420.835 1244.77 406.42C1244.69 392.046 1259.92 382.585 1262.96 367.926C1266.05 353.227 1265.32 327.077 1285.5 325.656C1285.58 325.656 1280.14 394.726 1287.2 462.171Z" fill="white"/>
<path fill-rule="evenodd" clip-rule="evenodd" d="M1706.53 398.177C1722.53 412.348 1715.71 427.576 1709.78 443.493C1703.89 459.37 1696.87 465.704 1705.36 483.814C1722.21 519.79 1702.15 567.745 1714.78 575.826C1715.71 576.435 1716.73 576.151 1717.78 575.136C1724.85 568.639 1734.27 531.769 1737.19 513.7C1740.52 492.869 1759.97 475.896 1764.4 458.842C1768.86 441.747 1752.74 433.26 1758.06 413.201C1763.38 393.102 1790.55 385.793 1790.91 368.251C1791.28 350.709 1772.92 338.893 1769.51 320.946C1766.06 302.998 1767.48 271.123 1742.92 268.93C1718.35 266.737 1716.04 316.073 1711.04 323.788C1706.05 331.503 1688.51 345.593 1685.14 357.125C1681.89 368.576 1690.49 384.006 1706.53 398.177Z" fill="#DBF2F7"/>
<path fill-rule="evenodd" clip-rule="evenodd" d="M1711.49 512.522C1715.55 531.972 1720.42 543.869 1717.94 557.026C1716.04 567.218 1713.03 576.029 1717.38 576.313C1718.63 576.394 1720.54 575.745 1723.3 574.161C1723.3 574.161 1727.97 569.491 1734.75 554.752C1741.58 540.012 1755.75 551.909 1776.13 544.885C1796.56 537.819 1789.08 521.293 1792.78 506.309C1796.52 491.326 1819.86 513.943 1839.35 496.239C1858.89 478.535 1839.4 474.272 1859.29 446.579C1863.96 440.122 1863.47 435.534 1860.23 432.326V432.286C1853.28 425.383 1833.3 424.733 1823.4 425.017C1808.9 425.504 1790.87 410.846 1780.6 428.956C1770.33 447.066 1776.46 475.652 1753.11 481.378C1729.8 487.022 1707.43 493.072 1711.49 512.522Z" fill="#DBF2F7"/>
<path fill-rule="evenodd" clip-rule="evenodd" d="M1717.38 576.273C1718.63 576.394 1720.62 577.003 1723.3 574.12C1723.3 574.12 1727.97 569.451 1734.75 554.711C1741.58 539.971 1755.75 551.869 1776.13 544.844C1796.56 537.779 1789.08 521.252 1792.78 506.269C1796.52 491.285 1819.86 513.903 1839.35 496.199C1858.89 478.495 1839.4 474.231 1859.29 446.538C1863.96 440.082 1863.47 435.493 1860.23 432.286C1860.23 432.286 1826.36 444.995 1797.29 465.054C1768.25 485.073 1722.41 549.676 1717.38 576.273Z" fill="white"/>
<path fill-rule="evenodd" clip-rule="evenodd" d="M1625.97 420.835C1629.38 434.763 1649.12 435.778 1654.44 453.441C1657.56 463.877 1640.55 471.551 1642.17 489.621C1643.47 504.076 1666.78 519.384 1681.56 526.206C1696.3 532.987 1699.43 551.909 1703.49 565.837C1707.59 579.724 1713.68 576.273 1713.68 576.273C1716.48 576.029 1715.1 567.664 1713.56 554.549C1712.02 541.433 1711.57 521.252 1715.51 508.746C1719.49 496.28 1729.31 472.566 1707.59 458.801C1685.87 445.036 1708.52 431.514 1710.15 407.395C1711.24 391.193 1689.6 387.579 1693.17 369.388C1696.75 351.197 1684.08 339.421 1669.1 334.67C1654.11 329.919 1644.69 303.039 1627.64 312.012C1610.62 320.986 1625.4 351.034 1631.7 368.779C1638.03 386.523 1620.33 397.446 1625.97 420.835Z" fill="white"/>
<path fill-rule="evenodd" clip-rule="evenodd" d="M1625.97 420.835C1629.38 434.763 1649.12 435.778 1654.44 453.441C1657.56 463.877 1640.55 471.551 1642.17 489.621C1643.47 504.076 1666.78 519.384 1681.56 526.206C1696.3 532.987 1699.43 551.909 1703.49 565.837C1707.59 579.724 1713.68 576.273 1713.68 576.273C1711.89 563.685 1690.37 464.892 1674.58 416.003C1651.84 345.674 1627.64 312.012 1627.64 312.012C1610.62 320.986 1625.4 351.034 1631.7 368.779C1638.03 386.523 1620.33 397.446 1625.97 420.835Z" fill="#DBF2F7"/>
<path fill-rule="evenodd" clip-rule="evenodd" d="M1738.13 435.25C1728.01 517.313 1714.78 575.826 1714.78 575.826C1716.97 575.339 1718.96 573.999 1720.14 572.049C1726.8 560.924 1734.59 529.82 1737.23 513.659C1740.56 492.828 1760.01 475.855 1764.44 458.801C1768.9 441.706 1752.78 433.219 1758.1 413.16C1763.42 393.061 1790.59 385.752 1790.95 368.21C1791.32 350.669 1772.96 338.852 1769.55 320.905C1766.1 302.957 1767.52 271.082 1742.96 268.889C1743 268.889 1748.15 353.186 1738.13 435.25Z" fill="white"/>
<path d="M1405.85 451.614C1400.45 436.224 1363.3 440.082 1414.26 331.422C1437.08 282.736 1394.56 245.866 1382.02 207.941C1373.85 183.334 1381.77 154.057 1401.22 163.234" stroke="#FAF8F6" stroke-width="1.86604" stroke-miterlimit="22.9256" stroke-linecap="round" stroke-linejoin="round" stroke-dasharray="3.73 3.73"/>
<path d="M1820.54 477.2C1827.26 450.012 1782.05 433.498 1930.16 295.51C1996.51 233.677 1979.18 150.624 1996.59 84.0848C2007.86 40.9004 2041.2 0.200986 2055.54 26.2456" stroke="#FAF8F6" stroke-width="1.86604" stroke-miterlimit="22.9256" stroke-linecap="round" stroke-linejoin="round" stroke-dasharray="3.73 3.73"/>
<path d="M1397.73 442.437C1343.16 431.392 1320.21 345.715 1352.82 307.546C1367.36 290.492 1386.73 292.522 1393.06 304.257C1409.51 334.792 1342.14 380.595 1305.39 283.913" stroke="#FAF8F6" stroke-width="1.86604" stroke-miterlimit="22.9256" stroke-linecap="round" stroke-linejoin="round" stroke-dasharray="3.73 3.73"/>
<path fill-rule="evenodd" clip-rule="evenodd" d="M1335.32 208.347C1341.41 208.347 1346.4 203.352 1346.4 197.261C1346.4 191.171 1341.41 186.176 1335.32 186.176C1329.23 186.176 1324.23 191.171 1324.23 197.261C1324.23 203.352 1329.23 208.347 1335.32 208.347Z" stroke="#FAF8F6" stroke-width="1.16622" stroke-miterlimit="22.9256" stroke-linecap="round" stroke-linejoin="round"/>
<path fill-rule="evenodd" clip-rule="evenodd" d="M1242.5 233C1252.66 233 1261 224.665 1261 214.5C1261 204.335 1252.66 196 1242.5 196C1232.34 196 1224 204.335 1224 214.5C1224 224.665 1232.34 233 1242.5 233Z" stroke="#FAF8F6" stroke-width="1.16622" stroke-miterlimit="22.9256" stroke-linecap="round" stroke-linejoin="round"/>
<path fill-rule="evenodd" clip-rule="evenodd" d="M1258 33C1262.4 33 1266 29.3956 1266 25C1266 20.6044 1262.4 17 1258 17C1253.6 17 1250 20.6044 1250 25C1250 29.3956 1253.6 33 1258 33Z" stroke="#FAF8F6" stroke-width="1.16622" stroke-miterlimit="22.9256" stroke-linecap="round" stroke-linejoin="round"/>
<path fill-rule="evenodd" clip-rule="evenodd" d="M1424.29 190.846C1428.02 190.846 1431.07 187.8 1431.07 184.065C1431.07 180.329 1428.02 177.284 1424.29 177.284C1420.55 177.284 1417.5 180.329 1417.5 184.065C1417.46 187.8 1420.55 190.846 1424.29 190.846Z" stroke="#FAF8F6" stroke-width="1.16622" stroke-miterlimit="22.9256" stroke-linecap="round" stroke-linejoin="round"/>
<path fill-rule="evenodd" clip-rule="evenodd" d="M1428.55 261.093C1432.29 261.093 1435.33 258.048 1435.33 254.312C1435.33 250.576 1432.29 247.531 1428.55 247.531C1424.81 247.531 1421.77 250.576 1421.77 254.312C1421.73 258.048 1424.77 261.093 1428.55 261.093Z" stroke="#FAF8F6" stroke-width="1.16622" stroke-miterlimit="22.9256" stroke-linecap="round" stroke-linejoin="round"/>
<path d="M1281.4 483.652H1156.13V579.887H1281.4V483.652Z" fill="#EC4899"/>
<path d="M1298.49 483.652H1210.25V579.887H1298.49V483.652Z" fill="#BE185D"/>
<path d="M1427.78 406.664H1302.51V579.887H1427.78V406.664Z" fill="#81F2D0"/>
<path d="M1444.43 406.664H1356.19V579.887H1444.43V406.664Z" fill="#42D1A6"/>
<path d="M1573.75 334.386H1448.49V579.887H1573.75V334.386Z" fill="#EC4899"/>
<path d="M1590.85 334.386H1502.61V579.887H1590.85V334.386Z" fill="#BE185D"/>
<path d="M1719.65 406.664H1594.38V579.887H1719.65V406.664Z" fill="#81F2D0"/>
<path d="M1736.3 406.664H1648.06V579.887H1736.3V406.664Z" fill="#42D1A6"/>
<path fill-rule="evenodd" clip-rule="evenodd" d="M1159.78 450.151C1163.52 450.151 1166.56 447.106 1166.56 443.37C1166.56 439.634 1163.52 436.589 1159.78 436.589C1156.05 436.589 1153 439.634 1153 443.37C1152.96 447.106 1156.01 450.151 1159.78 450.151Z" stroke="#FAF8F6" stroke-width="1.16622" stroke-miterlimit="22.9256" stroke-linecap="round" stroke-linejoin="round"/>
<path fill-rule="evenodd" clip-rule="evenodd" d="M1189.67 411.902C1195.76 411.902 1200.75 406.908 1200.75 400.817C1200.75 394.726 1195.76 389.732 1189.67 389.732C1183.58 389.732 1178.58 394.726 1178.58 400.817C1178.58 406.948 1183.58 411.902 1189.67 411.902Z" stroke="#FAF8F6" stroke-width="1.16622" stroke-miterlimit="22.9256" stroke-linecap="round" stroke-linejoin="round"/>
<path fill-rule="evenodd" clip-rule="evenodd" d="M1923.76 487.451C1926.37 483.602 1925.35 478.305 1921.51 475.695C1917.66 473.085 1912.36 474.101 1909.75 477.95C1907.14 481.799 1908.16 487.096 1912.01 489.706C1915.88 492.333 1921.15 491.3 1923.76 487.451Z" stroke="#FAF8F6" stroke-width="0.89045" stroke-miterlimit="22.9256" stroke-linecap="round" stroke-linejoin="round"/>
<path fill-rule="evenodd" clip-rule="evenodd" d="M154.298 94.4433C151.283 97.9836 151.713 103.359 155.253 106.375C158.793 109.391 164.169 108.96 167.185 105.42C170.2 101.88 169.77 96.504 166.23 93.4884C162.666 90.4527 157.314 90.903 154.298 94.4433Z" stroke="#FAF8F6" stroke-width="0.89045" stroke-miterlimit="22.9256" stroke-linecap="round" stroke-linejoin="round"/>
<path fill-rule="evenodd" clip-rule="evenodd" d="M1682.41 191.252C1688.51 191.252 1693.5 186.258 1693.5 180.167C1693.5 174.076 1688.51 169.081 1682.41 169.081C1676.32 169.081 1671.33 174.076 1671.33 180.167C1671.33 186.298 1676.32 191.252 1682.41 191.252Z" stroke="#FAF8F6" stroke-width="1.16622" stroke-miterlimit="22.9256" stroke-linecap="round" stroke-linejoin="round"/>
<path fill-rule="evenodd" clip-rule="evenodd" d="M1995.47 81.5058C1998.08 77.6567 1997.07 72.3602 1993.22 69.7502C1989.37 67.1402 1984.07 68.1563 1981.46 72.0054C1978.85 75.8545 1979.87 81.151 1983.72 83.761C1987.59 86.3884 1992.86 85.3549 1995.47 81.5058Z" stroke="#FAF8F6" stroke-width="0.89045" stroke-miterlimit="22.9256" stroke-linecap="round" stroke-linejoin="round"/>
<path fill-rule="evenodd" clip-rule="evenodd" d="M38.5872 490.101C35.5716 493.641 36.0018 499.017 39.5421 502.033C43.0824 505.048 48.4583 504.618 51.4739 501.078C54.4895 497.537 54.0593 492.161 50.519 489.146C46.9551 486.11 41.6028 486.56 38.5872 490.101Z" stroke="#FAF8F6" stroke-width="0.89045" stroke-miterlimit="22.9256" stroke-linecap="round" stroke-linejoin="round"/>
<path fill-rule="evenodd" clip-rule="evenodd" d="M1637.87 230.761C1640.43 230.761 1642.54 228.65 1642.54 226.091C1642.54 223.533 1640.43 221.422 1637.87 221.422C1635.31 221.422 1633.2 223.533 1633.2 226.091C1633.2 228.65 1635.31 230.761 1637.87 230.761Z" stroke="#FAF8F6" stroke-width="1.16622" stroke-miterlimit="22.9256" stroke-linecap="round" stroke-linejoin="round"/>
<path fill-rule="evenodd" clip-rule="evenodd" d="M2001.35 126.586C2002.45 124.969 2002.02 122.73 2000.4 121.634C1998.78 120.538 1996.55 120.967 1995.45 122.584C1994.35 124.201 1994.78 126.44 1996.4 127.536C1998.02 128.632 2000.26 128.203 2001.35 126.586Z" stroke="#FAF8F6" stroke-width="0.89045" stroke-miterlimit="22.9256" stroke-linecap="round" stroke-linejoin="round"/>
<path fill-rule="evenodd" clip-rule="evenodd" d="M37.6767 444.648C36.4102 446.135 36.5921 448.407 38.079 449.674C39.5659 450.941 41.8386 450.759 43.1052 449.272C44.3718 447.785 44.1899 445.512 42.7029 444.246C41.216 442.979 38.9433 443.161 37.6767 444.648Z" stroke="#FAF8F6" stroke-width="0.89045" stroke-miterlimit="22.9256" stroke-linecap="round" stroke-linejoin="round"/>
<path fill-rule="evenodd" clip-rule="evenodd" d="M1613.06 285.132C1616.8 285.132 1619.84 282.086 1619.84 278.35C1619.84 274.615 1616.8 271.569 1613.06 271.569C1609.32 271.569 1606.28 274.615 1606.28 278.35C1606.28 282.086 1609.32 285.132 1613.06 285.132Z" stroke="#FAF8F6" stroke-width="1.16622" stroke-miterlimit="22.9256" stroke-linecap="round" stroke-linejoin="round"/>
<path fill-rule="evenodd" clip-rule="evenodd" d="M2025.08 165.563C2026.68 163.203 2026.06 159.973 2023.7 158.372C2021.34 156.771 2018.11 157.391 2016.51 159.752C2014.91 162.113 2015.53 165.342 2017.89 166.943C2020.25 168.544 2023.48 167.924 2025.08 165.563Z" stroke="#FAF8F6" stroke-width="0.89045" stroke-miterlimit="22.9256" stroke-linecap="round" stroke-linejoin="round"/>
<path fill-rule="evenodd" clip-rule="evenodd" d="M18.3574 403.307C16.5078 405.479 16.7701 408.757 18.9415 410.606C21.1129 412.456 24.3909 412.194 26.2405 410.022C28.09 407.851 27.8277 404.573 25.6563 402.723C23.4849 400.874 20.207 401.136 18.3574 403.307Z" stroke="#FAF8F6" stroke-width="0.89045" stroke-miterlimit="22.9256" stroke-linecap="round" stroke-linejoin="round"/>
<path d="M1449.38 217.686C1460.87 262.596 1499.37 279.406 1521.5 201.728" stroke="white" stroke-width="5.59813" stroke-miterlimit="10" stroke-linecap="round" stroke-linejoin="round"/>
<path fill-rule="evenodd" clip-rule="evenodd" d="M1417.06 219.838L1454.46 209.524C1454.94 211.271 1455.71 214.113 1456.08 215.372C1456.61 217.28 1456.08 217.321 1456.08 217.321C1455.15 217.889 1455.19 217.036 1451.53 217.767C1447.92 218.458 1446.94 222.112 1446.25 224.183C1445.93 225.158 1445.04 225.604 1444.18 225.807L1430.46 221.869L1420.59 224.142C1418.48 222.884 1417.5 221.097 1417.06 219.838Z" fill="#42D1A6"/>
<path fill-rule="evenodd" clip-rule="evenodd" d="M1454.62 209.484L1454.46 208.915L1454.01 207.372C1453.97 207.291 1453.93 207.21 1453.89 207.129L1452.91 204.286L1441.34 208.184L1441.87 209.768L1417.75 216.427C1416.08 217.321 1416.69 219.351 1416.86 219.879L1454.62 209.484Z" fill="#060827"/>
<path fill-rule="evenodd" clip-rule="evenodd" d="M1523.08 196.165C1520.03 195.312 1516.83 197.059 1515.97 200.145C1507.04 231.492 1494.13 250.089 1481.46 249.927C1472.44 249.805 1463.43 240.181 1457.79 225.157L1447.23 229.665C1454.74 249.074 1467.49 261.256 1481.34 261.418C1481.46 261.418 1481.54 261.418 1481.66 261.418C1492.58 261.418 1512.72 253.703 1527.1 203.271C1527.91 200.226 1526.12 197.018 1523.08 196.165Z" fill="#060827"/>
<path d="M1533.47 120.314C1558.93 106.468 1578.51 62.4109 1556.62 41.4585" stroke="#F0F9CB" stroke-width="5.59813" stroke-miterlimit="10" stroke-linecap="round" stroke-linejoin="round"/>
<path fill-rule="evenodd" clip-rule="evenodd" d="M1569.13 46.6154C1569.65 47.6712 1570.14 48.7675 1570.55 49.8639C1571.2 51.5693 1571.72 53.356 1572.17 55.1832C1572.62 57.2135 1572.94 59.2843 1573.1 61.4364C1573.23 62.8982 1573.27 64.4006 1573.27 65.9437C1573.27 67.7709 1573.15 69.5981 1572.9 71.5066C1572.86 71.9126 1572.82 72.3593 1572.74 72.7654C1572.62 73.6993 1572.45 74.6738 1572.29 75.6077C1571.97 77.3132 1571.6 79.0186 1571.16 80.724C1570.83 82.0234 1570.42 83.2822 1570.02 84.5409C1569.49 86.1652 1568.88 87.7488 1568.27 89.3324C1567.79 90.5505 1567.26 91.7281 1566.73 92.9463C1566.04 94.4893 1565.27 95.9917 1564.46 97.4535L1564.42 97.5347C1563.81 98.6716 1563.2 99.768 1562.51 100.824C1561.65 102.286 1560.72 103.707 1559.75 105.087C1558.97 106.184 1558.24 107.239 1557.43 108.254C1556.38 109.635 1555.28 110.975 1554.18 112.234C1553.29 113.249 1552.4 114.224 1551.46 115.198C1550.2 116.497 1548.94 117.716 1547.6 118.853C1546.55 119.827 1545.49 120.72 1544.4 121.532C1542.89 122.71 1541.35 123.806 1539.77 124.781C1538.83 125.39 1537.86 125.958 1536.93 126.486C1536.52 126.689 1536.11 126.892 1535.71 127.014C1534.37 127.461 1532.91 127.461 1531.52 127.055C1529.7 126.527 1528.2 125.309 1527.26 123.603C1527.02 123.116 1526.77 122.629 1526.65 122.101C1526.25 120.68 1526.29 119.177 1526.81 117.756C1526.94 117.431 1527.06 117.106 1527.26 116.822C1527.91 115.604 1528.89 114.63 1530.1 113.939C1530.14 113.899 1530.18 113.899 1530.23 113.858C1531.52 113.168 1532.78 112.356 1534 111.462C1535.46 110.447 1536.93 109.31 1538.31 108.051C1539.32 107.158 1540.3 106.224 1541.27 105.209C1542.45 103.991 1543.63 102.692 1544.72 101.352C1545.53 100.336 1546.35 99.2807 1547.12 98.225C1548.09 96.8444 1549.03 95.4638 1549.92 94.002C1550.57 92.9057 1551.22 91.8093 1551.83 90.6723L1551.87 90.5911C1552.68 89.0887 1553.41 87.5863 1554.1 86.0433C1554.67 84.8252 1555.16 83.607 1555.6 82.4294C1556.21 80.8052 1556.74 79.1404 1557.19 77.5162C1557.55 76.1762 1557.88 74.8768 1558.12 73.5775C1558.32 72.6435 1558.49 71.7096 1558.61 70.7757C1558.73 69.9636 1558.81 69.1109 1558.85 68.2581C1558.97 66.837 1559.01 65.3752 1558.93 63.8728C1558.85 61.8425 1558.61 59.731 1558.04 57.6195C1557.59 55.7923 1556.94 54.0056 1556.01 52.2596L1556.17 52.1784L1562.02 49.6203L1566.57 47.6306L1569.13 46.6154Z" fill="#BE185D"/>
<path fill-rule="evenodd" clip-rule="evenodd" d="M1528.32 222.153C1527.87 222.193 1527.38 222.193 1526.9 222.153C1517.23 221.868 1509.64 213.828 1509.92 204.164C1510.57 181.872 1508.42 159.661 1503.55 138.099C1501.44 128.679 1507.32 119.299 1516.79 117.188C1526.21 115.035 1535.59 120.964 1537.7 130.425C1543.18 154.829 1545.61 179.964 1544.88 205.18C1544.64 214.356 1537.33 221.665 1528.32 222.153Z" fill="#060827"/>
<path fill-rule="evenodd" clip-rule="evenodd" d="M1508.7 199.332C1508.91 178.745 1506.8 158.28 1502.33 138.384C1501.23 133.47 1502.09 128.476 1504.77 124.212C1505.7 122.71 1506.84 121.37 1508.14 120.233C1510.49 118.121 1513.37 116.619 1516.5 115.929C1517.56 115.685 1518.65 115.563 1519.71 115.482C1522.23 115.36 1524.7 115.726 1526.98 116.538C1532.86 118.649 1537.53 123.644 1539 130.1C1542.98 147.682 1545.33 165.67 1546.06 183.74C1546.1 184.511 1546.14 185.323 1546.14 186.095C1546.26 189.871 1546.35 193.607 1546.31 197.383L1508.7 199.332Z" fill="#BE185D"/>
<path d="M1501.56 127.014C1479.47 108.214 1469.4 61.1116 1495.1 45.0724" stroke="#F0F9CB" stroke-width="5.59813" stroke-miterlimit="10" stroke-linecap="round" stroke-linejoin="round"/>
<path fill-rule="evenodd" clip-rule="evenodd" d="M1481.82 47.5493C1481.09 48.4833 1480.4 49.4578 1479.75 50.4729C1478.74 51.9753 1477.89 53.6402 1477.07 55.3456C1476.22 57.2134 1475.45 59.2031 1474.88 61.274C1474.43 62.6952 1474.11 64.157 1473.78 65.6594C1473.42 67.446 1473.17 69.2732 1473.01 71.1817C1472.97 71.5878 1472.93 72.0344 1472.89 72.4405C1472.81 73.415 1472.77 74.3489 1472.73 75.3235C1472.69 77.0289 1472.69 78.8155 1472.81 80.5616C1472.89 81.9016 1472.97 83.2009 1473.13 84.5409C1473.34 86.2057 1473.58 87.9112 1473.87 89.6166C1474.07 90.8754 1474.35 92.1747 1474.64 93.4741C1475 95.0983 1475.45 96.7225 1475.94 98.3468L1475.98 98.428C1476.34 99.6461 1476.71 100.864 1477.15 102.042C1477.72 103.666 1478.29 105.209 1478.94 106.793C1479.47 108.011 1480 109.229 1480.57 110.366C1481.3 111.909 1482.11 113.452 1482.92 114.914C1483.57 116.091 1484.26 117.228 1484.95 118.365C1485.92 119.868 1486.9 121.37 1487.96 122.751C1488.77 123.888 1489.66 124.984 1490.55 126.04C1491.77 127.501 1493.07 128.882 1494.41 130.141C1495.22 130.953 1496.04 131.684 1496.85 132.374C1497.17 132.658 1497.54 132.943 1497.94 133.146C1499.2 133.836 1500.58 134.161 1502.05 134.039C1503.95 133.876 1505.66 132.983 1506.92 131.562C1507.28 131.156 1507.57 130.709 1507.81 130.222C1508.5 128.923 1508.75 127.42 1508.54 125.918C1508.5 125.593 1508.42 125.228 1508.34 124.903C1507.93 123.563 1507.2 122.426 1506.15 121.532C1506.11 121.492 1506.07 121.451 1506.02 121.411C1504.93 120.477 1503.83 119.421 1502.82 118.284C1501.6 116.985 1500.42 115.563 1499.32 114.061C1498.51 113.005 1497.74 111.868 1497.01 110.691C1496.08 109.27 1495.22 107.767 1494.41 106.184C1493.8 105.006 1493.23 103.828 1492.71 102.61C1492.02 101.067 1491.41 99.4837 1490.84 97.9001C1490.43 96.7225 1490.03 95.5044 1489.66 94.2456L1489.62 94.1644C1489.13 92.5402 1488.73 90.8753 1488.36 89.2511C1488.08 87.9518 1487.83 86.6524 1487.63 85.3936C1487.35 83.6882 1487.18 81.9422 1487.1 80.2773C1487.02 78.8967 1486.94 77.5568 1486.98 76.2574C1486.98 75.2829 1487.02 74.3489 1487.1 73.415C1487.14 72.6029 1487.26 71.7502 1487.39 70.8975C1487.55 69.5169 1487.83 68.0551 1488.2 66.5933C1488.69 64.6036 1489.38 62.614 1490.35 60.6649C1491.16 58.9595 1492.18 57.3353 1493.44 55.8329L1493.27 55.711L1488.08 51.9753L1484.06 49.0923L1481.82 47.5493Z" fill="#BE185D"/>
<path fill-rule="evenodd" clip-rule="evenodd" d="M1526.33 123.4L1525.15 116.01C1525.76 116.172 1526.41 116.335 1526.98 116.538L1526.81 146.139L1512.68 127.948L1519.26 121.898L1526.33 123.4Z" fill="white"/>
<path fill-rule="evenodd" clip-rule="evenodd" d="M1516.5 115.929C1517.56 115.685 1518.65 115.563 1519.71 115.482C1521.58 115.401 1523.36 115.563 1525.11 116.01L1526.29 123.4L1519.26 121.938L1512.68 127.989L1508.14 120.274C1510.49 118.121 1513.33 116.66 1516.5 115.929Z" fill="#060827"/>
<path fill-rule="evenodd" clip-rule="evenodd" d="M1515 101.595C1517.11 101.27 1519.14 102.732 1519.47 104.844L1521.5 117.797C1521.82 119.908 1520.36 121.939 1518.25 122.263C1516.14 122.588 1514.11 121.127 1513.78 119.015L1511.75 106.062C1511.43 103.91 1512.89 101.92 1515 101.595Z" fill="#9D1717"/>
<path d="M1536.56 210.824C1536.56 210.824 1542.04 276.117 1553.53 320.986" stroke="white" stroke-width="5.59813" stroke-miterlimit="10" stroke-linecap="round" stroke-linejoin="round"/>
<path fill-rule="evenodd" clip-rule="evenodd" d="M1585.41 331.097L1546.67 328.945C1546.79 327.118 1546.96 324.194 1547.04 322.895C1547.16 320.946 1547.65 321.027 1547.65 321.027C1548.7 320.783 1548.42 321.595 1552.07 322.083C1555.73 322.57 1557.8 319.443 1559.14 317.697C1559.75 316.885 1560.76 316.763 1561.61 316.845L1573.39 324.966L1583.46 325.94C1585.08 327.727 1585.41 329.757 1585.41 331.097Z" fill="#42D1A6"/>
<path fill-rule="evenodd" clip-rule="evenodd" d="M1546.55 328.904L1546.51 329.473L1546.43 331.097C1546.43 331.178 1546.43 331.3 1546.47 331.381V334.386H1558.69V332.721L1583.7 334.102C1585.57 333.818 1585.65 331.665 1585.65 331.097L1546.55 328.904Z" fill="#060827"/>
<path fill-rule="evenodd" clip-rule="evenodd" d="M1542.29 210.336C1542 207.169 1539.24 204.814 1536.07 205.098C1532.91 205.383 1530.55 208.144 1530.83 211.311C1531.04 213.829 1535.87 270.473 1546.06 314.53L1556.9 310.348C1547.12 267.184 1542.33 210.946 1542.29 210.336Z" fill="#060827"/>
<path d="M1526.23 184.891L1513.95 185.665L1514.1 188.016L1526.38 187.242L1526.23 184.891Z" fill="#060827"/>
<path fill-rule="evenodd" clip-rule="evenodd" d="M1546.14 186.136L1541.23 186.46L1541.07 184.105L1546.02 183.781C1546.1 184.593 1546.1 185.364 1546.14 186.136Z" fill="#060827"/>
<path fill-rule="evenodd" clip-rule="evenodd" d="M1524.46 90.0228L1532.78 85.7186L1527.26 65.1723L1516.91 68.908L1524.46 90.0228Z" fill="#060827"/>
<path fill-rule="evenodd" clip-rule="evenodd" d="M1525.23 79.1405L1526.94 78.5314C1529.45 77.6381 1532.17 78.9375 1533.07 81.455L1533.84 83.6071C1534.73 86.1246 1533.43 88.8452 1530.92 89.7385L1529.21 90.3476L1525.23 79.1405Z" fill="#9D1717"/>
<path fill-rule="evenodd" clip-rule="evenodd" d="M1499.32 99.8898C1499.08 97.9813 1491.53 85.7185 1490.07 78.4095C1488.85 72.1157 1499.16 76.7853 1499.16 76.7853L1504.4 99.8086L1499.32 99.8898Z" fill="#060827"/>
<path fill-rule="evenodd" clip-rule="evenodd" d="M1497.01 89.2107L1495.3 89.8198C1492.79 90.7131 1491.49 93.4743 1492.38 95.9512L1493.15 98.1033C1494.05 100.621 1496.81 101.92 1499.28 101.027L1500.99 100.418L1497.01 89.2107Z" fill="#F0F9CB"/>
<path fill-rule="evenodd" clip-rule="evenodd" d="M1507.57 66.0655L1505.78 66.7152C1497.29 69.7606 1492.83 79.1811 1495.87 87.7082L1501.31 102.976C1504.52 111.99 1514.51 116.701 1523.53 113.493L1524.42 113.168C1532.91 110.122 1537.37 100.702 1534.33 92.1748L1528.56 76.0139C1525.52 67.4867 1516.05 63.0201 1507.57 66.0655Z" fill="#F0F9CB"/>
<path fill-rule="evenodd" clip-rule="evenodd" d="M1521.29 57.2947L1495.02 66.6746C1489.38 68.7049 1488.28 74.0242 1490.64 80.6835C1490.64 80.6835 1492.22 81.7392 1493.44 81.5362L1498.19 94.7736C1498.63 96.0729 1500.06 96.7632 1501.35 96.3572C1501.4 96.3572 1501.4 96.3572 1501.44 96.3166C1502.82 95.8699 1503.59 94.3675 1503.1 92.9869L1498.47 80.0744L1498.43 79.912L1504.44 77.7599L1525.92 70.0854C1529.41 68.8267 1531.24 64.9692 1529.98 61.4771C1529.74 60.7868 1529.41 60.2183 1529.01 59.6498C1527.3 57.2947 1524.18 56.239 1521.29 57.2947ZM1527.38 58.1068C1527.46 58.1475 1527.55 58.2287 1527.63 58.2693C1527.55 58.2287 1527.46 58.1881 1527.38 58.1068Z" fill="#060827"/>
<path d="M1435.17 43.8948H1641.32" stroke="#060827" stroke-width="3.73209" stroke-miterlimit="22.9256" stroke-linecap="round" stroke-linejoin="round"/>
<path d="M1557.84 42.7985C1557.11 41.9052 1557.51 42.3113 1556.62 41.4991" stroke="#F0F9CB" stroke-width="5.59813" stroke-miterlimit="10" stroke-linecap="round" stroke-linejoin="round"/>
<path d="M1493.48 46.1688C1494.01 45.8034 1494.53 45.3973 1495.1 45.0724" stroke="#F0F9CB" stroke-width="5.59813" stroke-miterlimit="10" stroke-linecap="round" stroke-linejoin="round"/>
<path fill-rule="evenodd" clip-rule="evenodd" d="M1463.96 158.402C1465.83 158.402 1467.37 156.859 1467.37 154.991C1467.37 153.123 1465.83 151.58 1463.96 151.58C1462.09 151.58 1460.55 153.123 1460.55 154.991C1460.55 156.859 1462.09 158.402 1463.96 158.402Z" fill="white"/>
<path fill-rule="evenodd" clip-rule="evenodd" d="M1584.15 108.052C1585.61 108.052 1586.79 106.874 1586.79 105.412C1586.79 103.95 1585.61 102.773 1584.15 102.773C1582.69 102.773 1581.51 103.95 1581.51 105.412C1581.51 106.874 1582.73 108.052 1584.15 108.052Z" fill="white"/>
<path fill-rule="evenodd" clip-rule="evenodd" d="M1626.83 7.22776C1628.81 7.22776 1630.44 5.60355 1630.44 3.61388C1630.44 1.62422 1628.81 0 1626.83 0C1624.84 0 1623.21 1.62422 1623.21 3.61388C1623.25 5.60355 1624.88 7.22776 1626.83 7.22776Z" fill="white"/>
<path fill-rule="evenodd" clip-rule="evenodd" d="M1318.67 142.525C1320.78 142.525 1322.49 140.82 1322.49 138.708C1322.49 136.597 1320.78 134.892 1318.67 134.892C1316.56 134.892 1314.85 136.597 1314.85 138.708C1314.85 140.82 1316.56 142.525 1318.67 142.525Z" fill="white"/>
<path fill-rule="evenodd" clip-rule="evenodd" d="M1727.32 163.559C1728.26 164.655 1729.96 164.777 1731.06 163.843C1732.16 162.909 1732.28 161.204 1731.34 160.108C1730.41 159.011 1728.7 158.889 1727.61 159.823C1726.51 160.798 1726.39 162.463 1727.32 163.559Z" fill="white"/>
<path fill-rule="evenodd" clip-rule="evenodd" d="M1763.95 106.549C1765.25 108.052 1767.52 108.214 1769.03 106.955C1770.53 105.656 1770.69 103.382 1769.43 101.879C1768.13 100.377 1765.86 100.215 1764.36 101.473C1762.81 102.732 1762.65 105.047 1763.95 106.549Z" fill="white"/>
<path fill-rule="evenodd" clip-rule="evenodd" d="M1261.58 99.4025C1262.51 100.499 1264.22 100.621 1265.32 99.6868C1266.41 98.7528 1266.53 97.0474 1265.6 95.9511C1264.67 94.8547 1262.96 94.7329 1261.86 95.6668C1260.77 96.6413 1260.65 98.3062 1261.58 99.4025Z" fill="white"/>
<path fill-rule="evenodd" clip-rule="evenodd" d="M1383.4 71.3849C1384.33 72.4813 1386.04 72.6031 1387.13 71.6692C1388.23 70.7353 1388.35 69.0298 1387.42 67.9335C1386.48 66.8371 1384.78 66.7153 1383.68 67.6492C1382.58 68.6238 1382.46 70.2886 1383.4 71.3849Z" fill="white"/>
<path fill-rule="evenodd" clip-rule="evenodd" d="M1448.16 16.3233C1449.46 17.8257 1451.73 17.9882 1453.24 16.7294C1454.74 15.43 1454.9 13.1561 1453.64 11.6537C1452.34 10.1513 1450.07 9.9889 1448.57 11.2477C1447.07 12.547 1446.86 14.8209 1448.16 16.3233Z" fill="white"/>
<path fill-rule="evenodd" clip-rule="evenodd" d="M1588.29 197.627C1589.59 199.129 1591.86 199.292 1593.37 198.033C1594.87 196.734 1595.03 194.46 1593.77 192.957C1592.47 191.455 1590.2 191.293 1588.7 192.551C1587.15 193.81 1586.99 196.125 1588.29 197.627Z" fill="white"/>
<path fill-rule="evenodd" clip-rule="evenodd" d="M1447.63 312.419C1448.93 313.921 1451.21 314.083 1452.71 312.825C1454.21 311.525 1454.37 309.251 1453.12 307.749C1451.82 306.246 1449.54 306.084 1448.04 307.343C1446.5 308.602 1446.33 310.916 1447.63 312.419Z" fill="white"/>
<path fill-rule="evenodd" clip-rule="evenodd" d="M1592.11 294.715C1593.04 295.811 1594.75 295.933 1595.84 294.999C1596.94 294.065 1597.06 292.36 1596.13 291.263C1595.19 290.167 1593.49 290.045 1592.39 290.979C1591.3 291.913 1591.17 293.618 1592.11 294.715Z" fill="white"/>
<path fill-rule="evenodd" clip-rule="evenodd" d="M1237.01 325.737C1238.31 327.24 1240.59 327.402 1242.09 326.143C1243.59 324.844 1243.75 322.57 1242.5 321.067C1241.2 319.565 1238.92 319.403 1237.42 320.661C1235.92 321.961 1235.71 324.235 1237.01 325.737Z" fill="white"/>
<path fill-rule="evenodd" clip-rule="evenodd" d="M1821.57 327.321C1822.87 328.823 1825.14 328.986 1826.65 327.727C1828.15 326.427 1828.31 324.154 1827.05 322.651C1825.75 321.149 1823.48 320.986 1821.98 322.245C1820.43 323.504 1820.27 325.778 1821.57 327.321Z" fill="white"/>
<path fill-rule="evenodd" clip-rule="evenodd" d="M41 49C45.3956 49 49 45.3956 49 41C49 36.6044 45.3956 33 41 33C36.6044 33 33 36.6044 33 41C33 45.3956 36.6044 49 41 49Z" stroke="#FAF8F6" stroke-width="1.16622" stroke-miterlimit="22.9256" stroke-linecap="round" stroke-linejoin="round"/>
<path fill-rule="evenodd" clip-rule="evenodd" d="M45 316C54.3407 316 62 308.341 62 299C62 289.659 54.3407 282 45 282C35.6593 282 28 289.659 28 299C28 308.341 35.6593 316 45 316Z" stroke="#FAF8F6" stroke-width="1.16622" stroke-miterlimit="22.9256" stroke-linecap="round" stroke-linejoin="round"/>
<g filter="url(#filter0_d)">
<rect x="174" y="236" width="459.293" height="102.065" rx="20" fill="#BE185D"/>
<rect x="174" y="358.478" width="459.293" height="102.065" rx="20" fill="#BE185D"/>
<rect x="653.707" y="236" width="459.293" height="102.065" rx="20" fill="#BE185D"/>
<rect x="653.707" y="358.478" width="459.293" height="102.065" rx="20" fill="#BE185D"/>
<rect x="168" y="229" width="459.293" height="102.065" rx="20" fill="white"/>
<rect x="168" y="351.478" width="459.293" height="102.065" rx="20" fill="white"/>
<rect x="647.707" y="229" width="459.293" height="102.065" rx="20" fill="white"/>
<rect x="647.707" y="351.478" width="459.293" height="102.065" rx="20" fill="white"/>
<path d="M387.44 246.011C368.681 246.011 353.418 261.273 353.418 280.033C353.418 298.792 368.681 314.054 387.44 314.054C406.2 314.054 421.462 298.792 421.462 280.033C421.462 261.273 406.2 246.011 387.44 246.011ZM380.639 295.046L368.007 282.441L372.811 277.624L380.632 285.432L398.644 267.421L403.454 272.231L380.639 295.046Z" fill="#27DBA5"/>
<path fill-rule="evenodd" clip-rule="evenodd" d="M843.332 280.033C843.332 261.219 858.539 246.011 877.353 246.011C896.167 246.011 911.375 261.219 911.375 280.033C911.375 298.847 896.167 314.054 877.353 314.054C858.539 314.054 843.332 298.847 843.332 280.033ZM887.186 294.662C888.512 295.989 890.656 295.989 891.983 294.662C893.275 293.335 893.275 291.158 891.983 289.865L882.15 280.033L891.983 270.2C893.309 268.874 893.309 266.73 891.983 265.403C890.656 264.076 888.512 264.076 887.186 265.403L877.353 275.236L867.521 265.403C866.194 264.076 864.051 264.076 862.724 265.403C862.087 266.039 861.729 266.902 861.729 267.802C861.729 268.702 862.087 269.565 862.724 270.2L872.556 280.033L862.724 289.865C862.087 290.501 861.729 291.364 861.729 292.263C861.729 293.163 862.087 294.026 862.724 294.662C864.051 295.989 866.194 295.989 867.521 294.662L877.353 284.83L887.186 294.662Z" fill="#BE185D"/>
<path fill-rule="evenodd" clip-rule="evenodd" d="M843.332 402.511C843.332 383.697 858.539 368.489 877.353 368.489C896.167 368.489 911.375 383.697 911.375 402.511C911.375 421.325 896.167 436.533 877.353 436.533C858.539 436.533 843.332 421.325 843.332 402.511ZM887.186 417.14C888.512 418.467 890.656 418.467 891.983 417.14C893.275 415.813 893.275 413.636 891.983 412.343L882.15 402.511L891.983 392.679C893.309 391.352 893.309 389.208 891.983 387.881C890.656 386.555 888.512 386.555 887.186 387.881L877.353 397.714L867.521 387.881C866.194 386.555 864.051 386.555 862.724 387.881C862.087 388.517 861.729 389.38 861.729 390.28C861.729 391.18 862.087 392.043 862.724 392.679L872.556 402.511L862.724 412.343C862.087 412.979 861.729 413.842 861.729 414.742C861.729 415.642 862.087 416.505 862.724 417.14C864.051 418.467 866.194 418.467 867.521 417.14L877.353 407.308L887.186 417.14Z" fill="#BE185D"/>
<path fill-rule="evenodd" clip-rule="evenodd" d="M353.418 402.511C353.418 383.697 368.626 368.489 387.44 368.489C406.254 368.489 421.462 383.697 421.462 402.511C421.462 421.325 406.254 436.533 387.44 436.533C368.626 436.533 353.418 421.325 353.418 402.511ZM397.272 417.14C398.599 418.467 400.743 418.467 402.069 417.14C403.362 415.813 403.362 413.636 402.069 412.343L392.237 402.511L402.069 392.679C403.396 391.352 403.396 389.208 402.069 387.881C400.743 386.555 398.599 386.555 397.272 387.881L387.44 397.714L377.608 387.881C376.281 386.555 374.138 386.555 372.811 387.881C372.174 388.517 371.816 389.38 371.816 390.28C371.816 391.18 372.174 392.043 372.811 392.679L382.643 402.511L372.811 412.343C372.174 412.979 371.816 413.842 371.816 414.742C371.816 415.642 372.174 416.505 372.811 417.14C374.138 418.467 376.281 418.467 377.608 417.14L387.44 407.308L397.272 417.14Z" fill="#BE185D"/>
<path d="M469.848 136.88C469.848 140.976 468.888 144.72 466.968 148.112C465.112 151.44 462.264 154.128 458.424 156.176C454.648 158.16 450.008 159.152 444.504 159.152H435.192V182H416.376V114.32H444.504C449.944 114.32 454.552 115.28 458.328 117.2C462.168 119.12 465.048 121.776 466.968 125.168C468.888 128.56 469.848 132.464 469.848 136.88ZM442.68 144.176C447.992 144.176 450.648 141.744 450.648 136.88C450.648 131.952 447.992 129.488 442.68 129.488H435.192V144.176H442.68ZM502.463 182.672C497.087 182.672 492.255 181.552 487.967 179.312C483.743 177.072 480.415 173.872 477.983 169.712C475.551 165.552 474.335 160.656 474.335 155.024C474.335 149.456 475.551 144.592 477.983 140.432C480.479 136.272 483.839 133.072 488.063 130.832C492.351 128.592 497.183 127.472 502.559 127.472C507.935 127.472 512.735 128.592 516.959 130.832C521.247 133.072 524.607 136.272 527.039 140.432C529.535 144.592 530.783 149.456 530.783 155.024C530.783 160.592 529.535 165.488 527.039 169.712C524.607 173.872 521.247 177.072 516.959 179.312C512.671 181.552 507.839 182.672 502.463 182.672ZM502.463 166.352C505.087 166.352 507.263 165.392 508.991 163.472C510.783 161.488 511.679 158.672 511.679 155.024C511.679 151.376 510.783 148.592 508.991 146.672C507.263 144.752 505.119 143.792 502.559 143.792C499.999 143.792 497.855 144.752 496.127 146.672C494.399 148.592 493.535 151.376 493.535 155.024C493.535 158.736 494.367 161.552 496.031 163.472C497.695 165.392 499.839 166.352 502.463 166.352ZM557.255 135.632C558.727 133.136 560.807 131.152 563.495 129.68C566.183 128.208 569.351 127.472 572.999 127.472C577.287 127.472 581.159 128.592 584.615 130.832C588.135 133.072 590.887 136.272 592.871 140.432C594.919 144.592 595.943 149.456 595.943 155.024C595.943 160.592 594.919 165.488 592.871 169.712C590.887 173.872 588.135 177.072 584.615 179.312C581.159 181.552 577.287 182.672 572.999 182.672C569.351 182.672 566.183 181.936 563.495 180.464C560.871 178.992 558.791 177.008 557.255 174.512V207.728H538.439V128.144H557.255V135.632ZM576.839 155.024C576.839 151.504 575.879 148.784 573.959 146.864C572.103 144.88 569.799 143.888 567.047 143.888C564.295 143.888 561.959 144.88 560.039 146.864C558.183 148.848 557.255 151.568 557.255 155.024C557.255 158.544 558.183 161.296 560.039 163.28C561.959 165.264 564.295 166.256 567.047 166.256C569.799 166.256 572.103 165.264 573.959 163.28C575.879 161.232 576.839 158.48 576.839 155.024ZM628.841 110.864L626.633 156.656H610.601L608.393 110.864H628.841ZM618.665 182.768C615.337 182.768 612.649 181.872 610.601 180.08C608.617 178.224 607.625 175.888 607.625 173.072C607.625 170.256 608.617 167.92 610.601 166.064C612.649 164.208 615.337 163.28 618.665 163.28C621.929 163.28 624.553 164.208 626.536 166.064C628.585 167.92 629.609 170.256 629.609 173.072C629.609 175.824 628.585 178.128 626.536 179.984C624.553 181.84 621.929 182.768 618.665 182.768ZM709.025 193.328L701.537 182.096C699.425 182.48 697.281 182.672 695.105 182.672C688.769 182.672 682.945 181.2 677.633 178.256C672.321 175.248 668.097 171.12 664.961 165.872C661.889 160.56 660.353 154.576 660.353 147.92C660.353 141.264 661.889 135.312 664.961 130.064C668.097 124.752 672.321 120.624 677.633 117.68C682.945 114.736 688.769 113.264 695.105 113.264C701.505 113.264 707.329 114.736 712.577 117.68C717.889 120.624 722.081 124.752 725.153 130.064C728.225 135.312 729.761 141.264 729.761 147.92C729.761 153.488 728.641 158.64 726.401 163.376C724.161 168.048 721.089 171.952 717.185 175.088L731.489 193.328H709.025ZM679.553 147.92C679.553 153.232 680.929 157.456 683.681 160.592C686.433 163.664 690.241 165.2 695.105 165.2C699.905 165.2 703.681 163.632 706.433 160.496C709.249 157.36 710.657 153.168 710.657 147.92C710.657 142.544 709.249 138.32 706.433 135.248C703.681 132.112 699.905 130.544 695.105 130.544C690.241 130.544 686.433 132.112 683.681 135.248C680.929 138.32 679.553 142.544 679.553 147.92ZM793.418 128.144V182H774.506V174.32C772.906 176.752 770.698 178.736 767.882 180.272C765.066 181.744 761.834 182.48 758.186 182.48C751.914 182.48 746.954 180.432 743.306 176.336C739.722 172.176 737.93 166.544 737.93 159.44V128.144H756.65V157.04C756.65 160.112 757.45 162.544 759.05 164.336C760.714 166.064 762.89 166.928 765.578 166.928C768.33 166.928 770.506 166.064 772.106 164.336C773.706 162.544 774.506 160.112 774.506 157.04V128.144H793.418ZM813.63 123.152C810.302 123.152 807.614 122.256 805.566 120.464C803.582 118.608 802.59 116.304 802.59 113.552C802.59 110.736 803.582 108.4 805.566 106.544C807.614 104.688 810.302 103.76 813.63 103.76C816.894 103.76 819.518 104.688 821.502 106.544C823.55 108.4 824.574 110.736 824.574 113.552C824.574 116.304 823.55 118.608 821.502 120.464C819.518 122.256 816.894 123.152 813.63 123.152ZM822.942 128.144V182H804.126V128.144H822.942ZM851.513 166.352H874.457V182H830.777V167.12L852.185 143.792H830.969V128.144H873.689V143.024L851.513 166.352Z" fill="#BE185D"/>
<path d="M463.848 129.88C463.848 133.976 462.888 137.72 460.968 141.112C459.112 144.44 456.264 147.128 452.424 149.176C448.648 151.16 444.008 152.152 438.504 152.152H429.192V175H410.376V107.32H438.504C443.944 107.32 448.552 108.28 452.328 110.2C456.168 112.12 459.048 114.776 460.968 118.168C462.888 121.56 463.848 125.464 463.848 129.88ZM436.68 137.176C441.992 137.176 444.648 134.744 444.648 129.88C444.648 124.952 441.992 122.488 436.68 122.488H429.192V137.176H436.68ZM496.463 175.672C491.087 175.672 486.255 174.552 481.967 172.312C477.743 170.072 474.415 166.872 471.983 162.712C469.551 158.552 468.335 153.656 468.335 148.024C468.335 142.456 469.551 137.592 471.983 133.432C474.479 129.272 477.839 126.072 482.063 123.832C486.351 121.592 491.183 120.472 496.559 120.472C501.935 120.472 506.735 121.592 510.959 123.832C515.247 126.072 518.607 129.272 521.039 133.432C523.535 137.592 524.783 142.456 524.783 148.024C524.783 153.592 523.535 158.488 521.039 162.712C518.607 166.872 515.247 170.072 510.959 172.312C506.671 174.552 501.839 175.672 496.463 175.672ZM496.463 159.352C499.087 159.352 501.263 158.392 502.991 156.472C504.783 154.488 505.679 151.672 505.679 148.024C505.679 144.376 504.783 141.592 502.991 139.672C501.263 137.752 499.119 136.792 496.559 136.792C493.999 136.792 491.855 137.752 490.127 139.672C488.399 141.592 487.535 144.376 487.535 148.024C487.535 151.736 488.367 154.552 490.031 156.472C491.695 158.392 493.839 159.352 496.463 159.352ZM551.255 128.632C552.727 126.136 554.807 124.152 557.495 122.68C560.183 121.208 563.351 120.472 566.999 120.472C571.287 120.472 575.159 121.592 578.615 123.832C582.135 126.072 584.887 129.272 586.871 133.432C588.919 137.592 589.943 142.456 589.943 148.024C589.943 153.592 588.919 158.488 586.871 162.712C584.887 166.872 582.135 170.072 578.615 172.312C575.159 174.552 571.287 175.672 566.999 175.672C563.351 175.672 560.183 174.936 557.495 173.464C554.871 171.992 552.791 170.008 551.255 167.512V200.728H532.439V121.144H551.255V128.632ZM570.839 148.024C570.839 144.504 569.879 141.784 567.959 139.864C566.103 137.88 563.799 136.888 561.047 136.888C558.295 136.888 555.959 137.88 554.039 139.864C552.183 141.848 551.255 144.568 551.255 148.024C551.255 151.544 552.183 154.296 554.039 156.28C555.959 158.264 558.295 159.256 561.047 159.256C563.799 159.256 566.103 158.264 567.959 156.28C569.879 154.232 570.839 151.48 570.839 148.024ZM622.841 103.864L620.633 149.656H604.601L602.393 103.864H622.841ZM612.665 175.768C609.337 175.768 606.649 174.872 604.601 173.08C602.617 171.224 601.625 168.888 601.625 166.072C601.625 163.256 602.617 160.92 604.601 159.064C606.649 157.208 609.337 156.28 612.665 156.28C615.929 156.28 618.553 157.208 620.536 159.064C622.585 160.92 623.609 163.256 623.609 166.072C623.609 168.824 622.585 171.128 620.536 172.984C618.553 174.84 615.929 175.768 612.665 175.768ZM703.025 186.328L695.537 175.096C693.425 175.48 691.281 175.672 689.105 175.672C682.769 175.672 676.945 174.2 671.633 171.256C666.321 168.248 662.097 164.12 658.961 158.872C655.889 153.56 654.353 147.576 654.353 140.92C654.353 134.264 655.889 128.312 658.961 123.064C662.097 117.752 666.321 113.624 671.633 110.68C676.945 107.736 682.769 106.264 689.105 106.264C695.505 106.264 701.329 107.736 706.577 110.68C711.889 113.624 716.081 117.752 719.153 123.064C722.225 128.312 723.761 134.264 723.761 140.92C723.761 146.488 722.641 151.64 720.401 156.376C718.161 161.048 715.089 164.952 711.185 168.088L725.489 186.328H703.025ZM673.553 140.92C673.553 146.232 674.929 150.456 677.681 153.592C680.433 156.664 684.241 158.2 689.105 158.2C693.905 158.2 697.681 156.632 700.433 153.496C703.249 150.36 704.657 146.168 704.657 140.92C704.657 135.544 703.249 131.32 700.433 128.248C697.681 125.112 693.905 123.544 689.105 123.544C684.241 123.544 680.433 125.112 677.681 128.248C674.929 131.32 673.553 135.544 673.553 140.92ZM787.418 121.144V175H768.506V167.32C766.906 169.752 764.698 171.736 761.882 173.272C759.066 174.744 755.834 175.48 752.186 175.48C745.914 175.48 740.954 173.432 737.306 169.336C733.722 165.176 731.93 159.544 731.93 152.44V121.144H750.65V150.04C750.65 153.112 751.45 155.544 753.05 157.336C754.714 159.064 756.89 159.928 759.578 159.928C762.33 159.928 764.506 159.064 766.106 157.336C767.706 155.544 768.506 153.112 768.506 150.04V121.144H787.418ZM807.63 116.152C804.302 116.152 801.614 115.256 799.566 113.464C797.582 111.608 796.59 109.304 796.59 106.552C796.59 103.736 797.582 101.4 799.566 99.544C801.614 97.688 804.302 96.76 807.63 96.76C810.894 96.76 813.518 97.688 815.502 99.544C817.55 101.4 818.574 103.736 818.574 106.552C818.574 109.304 817.55 111.608 815.502 113.464C813.518 115.256 810.894 116.152 807.63 116.152ZM816.942 121.144V175H798.126V121.144H816.942ZM845.513 159.352H868.457V175H824.777V160.12L846.185 136.792H824.969V121.144H867.689V136.024L845.513 159.352Z" fill="white"/>
</g>
</g>
<defs>
<filter id="filter0_d" x="155" y="87.76" width="971" height="389.783" filterUnits="userSpaceOnUse" color-interpolation-filters="sRGB">
<feFlood flood-opacity="0" result="BackgroundImageFix"/>
<feColorMatrix in="SourceAlpha" type="matrix" values="0 0 0 0 0 0 0 0 0 0 0 0 0 0 0 0 0 0 127 0"/>
<feOffset dy="4"/>
<feGaussianBlur stdDeviation="6.5"/>
<feColorMatrix type="matrix" values="0 0 0 0 0 0 0 0 0 0 0 0 0 0 0 0 0 0 0.09 0"/>
<feBlend mode="normal" in2="BackgroundImageFix" result="effect1_dropShadow"/>
<feBlend mode="normal" in="SourceGraphic" in2="effect1_dropShadow" result="shape"/>
</filter>
<linearGradient id="paint0_linear" x1="2048" y1="512" x2="1807.06" y2="-451.765" gradientUnits="userSpaceOnUse">
<stop stop-color="#DB2777"/>
<stop offset="1" stop-color="#F472B6"/>
</linearGradient>
<clipPath id="clip0">
<rect width="2048" height="512" fill="white"/>
</clipPath>
</defs>
</svg>
