<svg width="2000" height="500" viewBox="0 0 2000 500" fill="none" xmlns="http://www.w3.org/2000/svg">
<g clip-path="url(#clip0)">
<path d="M2000 0H0V500H2000V0Z" fill="#3B82F6"/>
<path d="M2000 0H0V500H2000V0Z" fill="url(#paint0_linear)"/>
<path d="M21 133.481C21 133.481 57.5832 242.081 144.024 230.218C135.192 143.516 21 133.481 21 133.481Z" fill="#DBEAFE"/>
<g style="mix-blend-mode:multiply">
<path d="M237.259 104.476C237.259 104.476 230.465 218.929 144.024 230.218C129.704 144.247 237.259 104.476 237.259 104.476Z" fill="#DBEAFE"/>
</g>
<path d="M40.3889 292.566C40.3889 292.566 96.5178 392.49 179.196 364.844C154.476 281.277 40.3889 292.566 40.3889 292.566Z" fill="#DBEAFE"/>
<g style="mix-blend-mode:multiply">
<path d="M247.502 224.051C247.502 224.051 262.03 337.772 179.196 364.844C149.25 283.002 247.502 224.051 247.502 224.051Z" fill="#DBEAFE"/>
</g>
<path d="M85.0205 438.898C85.0205 438.898 157.194 528.004 234.018 486.822C195.554 408.587 85.0205 438.898 85.0205 438.898Z" fill="#DBEAFE"/>
<g style="mix-blend-mode:multiply">
<path d="M277.657 336.518C277.657 336.518 311.104 446.267 234.018 486.822C190.641 411.2 277.657 336.518 277.657 336.518Z" fill="#DBEAFE"/>
</g>
<path d="M357.878 655C357.878 655 132.526 429.648 133.571 103.692" stroke="#DBEAFE" stroke-width="2.39" stroke-miterlimit="10" stroke-linecap="round"/>
<path d="M135.244 -29C135.244 -29 73.366 67.475 136.603 127.524C198.794 66.4298 135.244 -29 135.244 -29Z" fill="#DBEAFE"/>
<path d="M505.632 26.9801C505.632 26.9801 485.148 87.7895 436.746 81.1467C441.692 32.5987 505.632 26.9801 505.632 26.9801Z" fill="#DBEAFE" fill-opacity="0.5"/>
<g style="mix-blend-mode:multiply">
<path d="M384.54 10.7389C384.54 10.7389 388.344 74.8258 436.746 81.1467C444.764 33.0084 384.54 10.7389 384.54 10.7389Z" fill="#DBEAFE" fill-opacity="0.5"/>
</g>
<path d="M494.776 116.058C494.776 116.058 463.347 172.01 417.052 156.529C430.893 109.737 494.776 116.058 494.776 116.058Z" fill="#DBEAFE" fill-opacity="0.5"/>
<g style="mix-blend-mode:multiply">
<path d="M378.804 77.6937C378.804 77.6937 370.669 141.371 417.052 156.529C433.82 110.703 378.804 77.6937 378.804 77.6937Z" fill="#DBEAFE" fill-opacity="0.5"/>
</g>
<path d="M469.784 197.996C469.784 197.996 429.372 247.89 386.354 224.83C407.892 181.023 469.784 197.996 469.784 197.996Z" fill="#DBEAFE" fill-opacity="0.5"/>
<g style="mix-blend-mode:multiply">
<path d="M361.92 140.669C361.92 140.669 343.191 202.122 386.354 224.83C410.643 182.486 361.92 140.669 361.92 140.669Z" fill="#DBEAFE" fill-opacity="0.5"/>
</g>
<path d="M317 319C317 319 443.184 192.816 442.599 10.2999" stroke="#DBEAFE" stroke-width="2.39" stroke-miterlimit="10" stroke-linecap="round"/>
<path d="M441.662 -64C441.662 -64 476.31 -9.97964 440.902 23.6441C406.078 -10.5649 441.662 -64 441.662 -64Z" fill="#DBEAFE" fill-opacity="0.5"/>
<g opacity="0.48">
<path d="M2023 115.694C2023 115.694 1990.42 212.405 1913.44 201.841C1921.31 124.63 2023 115.694 2023 115.694Z" fill="#93C5FD"/>
<g style="mix-blend-mode:multiply">
<path d="M1830.42 89.8644C1830.42 89.8644 1836.47 191.788 1913.44 201.841C1926.2 125.282 1830.42 89.8644 1830.42 89.8644Z" fill="#93C5FD"/>
</g>
<path d="M2005.73 257.364C2005.73 257.364 1955.75 346.349 1882.12 321.729C1904.14 247.311 2005.73 257.364 2005.73 257.364Z" fill="#93C5FD"/>
<g style="mix-blend-mode:multiply">
<path d="M1821.29 196.349C1821.29 196.349 1808.36 297.621 1882.12 321.729C1908.79 248.847 1821.29 196.349 1821.29 196.349Z" fill="#93C5FD"/>
</g>
<path d="M1965.99 387.677C1965.99 387.677 1901.72 467.028 1833.3 430.355C1867.55 360.683 1965.99 387.677 1965.99 387.677Z" fill="#93C5FD"/>
<g style="mix-blend-mode:multiply">
<path d="M1794.44 296.504C1794.44 296.504 1764.65 394.239 1833.3 430.355C1871.93 363.01 1794.44 296.504 1794.44 296.504Z" fill="#93C5FD"/>
</g>
<path d="M1723 580.122C1723 580.122 1923.68 379.439 1922.75 89.1663" stroke="#DBEAFE" stroke-width="2.39" stroke-miterlimit="10" stroke-linecap="round"/>
<path d="M1921.26 -29C1921.26 -29 1976.37 56.9138 1920.05 110.389C1864.67 55.983 1921.26 -29 1921.26 -29Z" fill="#93C5FD"/>
</g>
<g opacity="0.46">
<path d="M1552.74 195.741C1552.74 195.741 1578.58 257.561 1628.51 247.055C1619.76 196.855 1552.74 195.741 1552.74 195.741Z" fill="#DBEAFE"/>
<g style="mix-blend-mode:multiply">
<path d="M1677.67 169.851C1677.67 169.851 1678.45 236.885 1628.51 247.055C1616.59 197.509 1677.67 169.851 1677.67 169.851Z" fill="#DBEAFE"/>
</g>
<path d="M1570.65 287.718C1570.65 287.718 1607.53 343.667 1654.6 324.113C1636.72 276.4 1570.65 287.718 1570.65 287.718Z" fill="#DBEAFE"/>
<g style="mix-blend-mode:multiply">
<path d="M1688.6 239.165C1688.6 239.165 1701.79 304.887 1654.61 324.112C1633.74 277.623 1688.6 239.165 1688.6 239.165Z" fill="#DBEAFE"/>
</g>
<path d="M1602.75 371.21C1602.75 371.21 1648.54 420.184 1691.64 392.978C1665.96 348.946 1602.75 371.21 1602.75 371.21Z" fill="#DBEAFE"/>
<g style="mix-blend-mode:multiply">
<path d="M1710.85 303.507C1710.85 303.507 1734.92 366.127 1691.64 392.978C1663.2 350.673 1710.85 303.507 1710.85 303.507Z" fill="#DBEAFE"/>
</g>
<path d="M1770.86 485.924C1770.86 485.924 1630.08 363.844 1617.16 173.696" stroke="#DBEAFE" stroke-width="2.39" stroke-miterlimit="10" stroke-linecap="round"/>
<path d="M1612.63 96.2378C1612.63 96.2378 1580.54 155.072 1619.92 187.469C1653.65 149.258 1612.63 96.2378 1612.63 96.2378Z" fill="#DBEAFE"/>
</g>
<path d="M347.089 498.555C347.089 498.555 392.802 84.6056 573.159 47.3947C753.517 10.1837 594.435 290.512 544.672 375.305C494.909 460.098 592.655 390.75 651.498 345.572C698.323 309.652 713.813 519.92 347.089 498.555Z" fill="#BFDBFE"/>
<g style="mix-blend-mode:multiply">
<path d="M479.152 197.396C495.176 120.926 626.038 47.5282 626.038 47.4392C613.174 42.9881 595.859 42.721 573.07 47.4392C392.713 84.8282 347 498.6 347 498.6C353.988 499.045 360.843 499.312 367.564 499.579L370.457 499.178C560.117 470.336 473.989 252.945 479.152 197.396Z" fill="#93C5FD"/>
</g>
<g style="mix-blend-mode:multiply">
<path d="M637.344 52.9585C637.344 52.9585 509.109 143.271 443.723 409.578" stroke="#93C5FD" stroke-width="1.07" stroke-miterlimit="10"/>
</g>
<g style="mix-blend-mode:multiply">
<path d="M651.498 345.572C611.973 375.839 554.999 416.789 536.705 415.32C558.961 452.398 645.4 380.023 674.688 353.94C671.261 342.056 662.181 337.337 651.498 345.572Z" fill="#93C5FD"/>
</g>
<g style="mix-blend-mode:multiply">
<path d="M631.291 204.562C590.614 201.164 549.687 206.771 511.423 220.987" stroke="#93C5FD" stroke-width="1.07" stroke-miterlimit="10"/>
</g>
<path d="M1691.76 595.831C1691.76 595.831 1609.13 236.536 1749 152.791C1888.87 69.0462 1837.75 349.762 1820.91 435.152C1804.07 520.542 1865.52 434.054 1901.51 379.12C1930.16 335.432 2004.48 506.639 1691.76 595.831Z" fill="#AED1FD"/>
<g style="mix-blend-mode:multiply">
<path d="M1714.22 305.593C1705.29 237.007 1793.23 137.467 1793.2 137.393C1781.16 137.428 1766.61 142.259 1748.94 152.854C1609.12 236.748 1691.7 595.894 1691.7 595.894C1697.67 594.226 1703.47 592.449 1709.17 590.71L1711.47 589.531C1861.56 510.064 1726.12 353.524 1714.22 305.593Z" fill="#AED1FD"/>
</g>
<g style="mix-blend-mode:multiply">
<path d="M1804.27 138.705C1804.27 138.705 1723.46 251.614 1746.55 493.263" stroke="#AED1FD" stroke-width="1.07" stroke-miterlimit="10"/>
</g>
<g style="mix-blend-mode:multiply">
<path d="M1901.51 379.12C1877.31 415.953 1841.65 466.807 1825.93 470.92C1855.35 495.41 1906.47 409.692 1923.33 379.345C1917 370.413 1908.03 369.12 1901.51 379.12Z" fill="#AED1FD"/>
</g>
<g style="mix-blend-mode:multiply">
<path d="M1843.46 267.172C1808.47 276.206 1775.91 292.839 1748.08 315.888" stroke="#AED1FD" stroke-width="1.07" stroke-miterlimit="10"/>
</g>
<path d="M284 372V723H370.554L361.169 458.406L393.471 723H480L413.463 372H284Z" fill="#F59E0B"/>
<path d="M393 151L394.86 151.665C403.755 154.872 411.621 160.429 417.628 167.75C423.634 175.07 427.558 183.883 428.984 193.255L443 285L404.188 270.966L393 151Z" fill="#CFCFD0"/>
<path d="M431.491 209L443 285L404.22 270.866L399 214.638L431.491 209Z" fill="#D18E86"/>
<path d="M334.646 140L284 162.371V372H414L393.338 151.147L334.646 140Z" fill="white"/>
<path d="M362.968 75.9561C363.215 72.1144 362.025 68.3191 359.633 65.3243C355.743 61.1585 339.776 54.4625 324.922 63.4842C310.067 72.5059 302.564 85.8724 309.764 111.736C315.7 128.604 325.376 133 325.376 133L345.334 104.58L362.968 75.9561Z" fill="#C73C27"/>
<path d="M346 186L375.811 296.161C377.798 303.523 381.408 310.348 386.377 316.135C391.345 321.923 397.547 326.526 404.527 329.609L410 332L399.308 217.794L346 186Z" fill="#A4A4A4"/>
<path d="M284 313C284 313 323 316.245 323 372H284V313Z" fill="#A4A4A4"/>
<path d="M362.45 75C362.45 75 367.466 103.303 366.965 121.96C366.93 123.16 366.456 124.305 365.636 125.171C364.815 126.036 363.707 126.561 362.526 126.643L345.948 127.814L348.907 146.292C349.148 147.73 349.077 149.203 348.699 150.61C348.321 152.017 347.645 153.323 346.719 154.438C345.792 155.552 344.638 156.448 343.335 157.064C342.032 157.679 340.613 157.998 339.176 158H336.367C333.903 157.962 331.538 157.004 329.725 155.309C327.911 153.615 326.776 151.302 326.536 148.812L323 106.612C323 106.612 358.939 92.1294 362.45 75Z" fill="#F7A89C"/>
<path d="M323.5 115C318.806 115 315 110.971 315 106C315 101.029 318.806 97 323.5 97C328.194 97 332 101.029 332 106C332 110.971 328.194 115 323.5 115Z" fill="#F7A89C"/>
<path d="M357.062 100.641C357.339 103.204 358.415 105.075 359.491 104.998C360.567 104.921 361.213 102.845 360.936 100.359C360.659 97.8731 359.552 95.9253 358.507 96.0022C357.462 96.0791 356.785 98.155 357.062 100.641Z" fill="#C73C27"/>
<path d="M361 91.0923C359.734 90.9141 358.434 90.9948 357.214 91.3273C355.994 91.6598 354.891 92.234 354 93" stroke="#C73C27" stroke-width="1.2" stroke-miterlimit="10" stroke-linecap="round"/>
<path d="M345.84 128H337C337 128 342.655 146.249 349 148L345.84 128Z" fill="#4D3529"/>
<path d="M283.943 162L273.294 167.111C258.317 174.492 246.405 186.9 239.635 202.17L197.063 298.176C195.121 302.527 194.081 307.227 194.005 311.992C193.928 316.757 194.818 321.488 196.62 325.899C198.422 330.31 201.099 334.31 204.489 337.657C207.879 341.004 211.912 343.629 216.344 345.373L283.918 372H293.929C297.661 372 301.24 370.517 303.879 367.876C306.517 365.236 308 361.654 308 357.92V335.126C307.997 332.279 307.131 329.499 305.517 327.155C303.903 324.81 301.617 323.01 298.96 321.992L255.315 305.279L290.149 230.279C290.149 230.279 300.62 168.107 283.943 162Z" fill="#F7A89C"/>
<path d="M239.849 202.067C246.544 186.836 258.324 174.46 273.134 167.098L283.665 162C300.131 168.092 289.802 230.104 289.802 230.104L277.882 256C265.255 248.354 245.734 238.49 225 235.941L239.849 202.067Z" fill="#CFCFD0"/>
<path d="M225 322.149C225.001 326.482 223.924 330.747 221.868 334.561C219.811 338.376 216.838 341.619 213.217 344C205.162 339.797 199.009 332.687 196.008 324.113C193.006 315.54 193.382 306.145 197.057 297.838L197.886 296H198.792C205.734 296 212.392 298.753 217.306 303.656C222.219 308.558 224.986 315.209 225 322.149Z" fill="#EF7D6E"/>
<g style="mix-blend-mode:overlay" opacity="0.41">
<path d="M284 372H314V723H284V372Z" fill="white"/>
</g>
<g style="mix-blend-mode:multiply">
<path d="M361 461C361 461 404.744 553.816 421 723H393.436L361 461Z" fill="#F59E0B"/>
</g>
<g style="mix-blend-mode:multiply">
<path d="M414 372L284 402V372H414Z" fill="#F59E0B"/>
</g>
<g style="mix-blend-mode:multiply">
<path d="M361 461V372H381.917C381.917 372 384.487 442.871 361 461Z" fill="#F59E0B"/>
</g>
<g style="mix-blend-mode:overlay" opacity="0.41">
<path d="M298.99 322C301.639 323.018 303.917 324.818 305.526 327.162C307.134 329.507 307.997 332.286 308 335.132V357.922C308 361.656 306.523 365.237 303.893 367.877C301.263 370.517 297.696 372 293.977 372H284C284 325.5 298.99 322 298.99 322Z" fill="white"/>
</g>
<g style="mix-blend-mode:overlay" opacity="0.41">
<path d="M239.83 202.274C245.32 189.965 254.216 179.465 265.478 172C266.786 192.701 266.786 232.241 251.218 259.043C231.494 293.043 215.464 324.287 199.357 331C196.304 326.134 194.495 320.598 194.088 314.876C193.681 309.153 194.689 303.419 197.023 298.174L239.83 202.274Z" fill="white"/>
</g>
<g style="mix-blend-mode:multiply" opacity="0.36">
<path d="M359.399 65.1238C361.751 68.1138 362.922 71.9029 362.679 75.7384C363.549 80.9947 367.325 105.158 366.977 121.667C366.943 122.871 366.474 124.018 365.661 124.886C364.848 125.754 363.749 126.28 362.58 126.362L353.659 127C332.415 108.144 344.093 62.8784 345.137 59C350.383 59.5195 355.354 61.654 359.399 65.1238ZM361.66 77.397L357.809 83.6994C359.404 81.8172 360.703 79.6908 361.66 77.397Z" fill="#851619"/>
</g>
<path d="M367.441 118.32L440.608 276.227C443.069 281.504 443.652 287.464 442.26 293.118C440.867 298.771 437.584 303.778 432.955 307.308L432.547 307.64C429.448 310.037 425.842 311.692 422.005 312.478C418.168 313.265 414.202 313.161 410.411 312.175C406.62 311.19 403.105 309.349 400.136 306.793C397.168 304.237 394.823 301.036 393.284 297.433L345.705 185.943C344 181.982 343.56 177.591 344.446 173.37C345.332 169.149 347.5 165.306 350.654 162.365L362.9 150.983L359.711 120.515C359.626 119.737 359.768 118.952 360.122 118.254C360.475 117.556 361.024 116.976 361.701 116.585C362.184 116.291 362.724 116.103 363.285 116.032C363.846 115.961 364.416 116.009 364.957 116.172C365.499 116.336 366 116.612 366.428 116.982C366.855 117.352 367.201 117.808 367.441 118.32Z" fill="#F7A89C"/>
<path d="M397 303.435C400.214 296.173 405.438 290.004 412.041 285.669C418.645 281.334 426.348 279.018 434.224 279C436.85 279.003 439.469 279.271 442.042 279.8C443.427 284.762 443.308 290.03 441.7 294.923C440.093 299.816 437.071 304.111 433.024 307.253L432.615 307.589C427.315 311.724 420.624 313.605 413.971 312.829C407.317 312.053 401.227 308.682 397 303.435Z" fill="#EF7D6E"/>
<g style="mix-blend-mode:overlay" opacity="0.41">
<path d="M325.019 63.3277C328.968 60.9158 333.406 59.4364 338 59C333.944 71.8037 325.095 90.8299 307.171 98C305.776 80.7406 313.027 70.6001 325.019 63.3277Z" fill="white"/>
</g>
<path d="M256 305L237 296" stroke="#983533" stroke-width="1.13" stroke-miterlimit="10"/>
<path d="M308 339L296 344" stroke="#983533" stroke-width="1.13" stroke-miterlimit="10"/>
<path d="M308 352L296 357" stroke="#983533" stroke-width="1.13" stroke-miterlimit="10"/>
<path d="M290.289 230C290.289 230 296.947 281.005 283.995 296L282 247.546L290.289 230Z" fill="#A4A4A4"/>
<path opacity="0.41" d="M312.989 209C312.989 209 346.068 308.987 366.408 322.991C386.749 336.994 333.682 332.837 320.793 284.348C307.904 235.859 312.989 209 312.989 209Z" fill="#CFCFD0"/>
<g style="mix-blend-mode:overlay" opacity="0.41">
<path d="M350.646 162.347L362.878 151C362.878 151 409.077 223.353 385.098 278L345.703 185.854C344 181.905 343.561 177.526 344.446 173.319C345.331 169.111 347.496 165.279 350.646 162.347Z" fill="white"/>
</g>
<path opacity="0.81" d="M462.901 25.9659C478.973 17.9573 496.039 16.351 511.541 22.8196C532.153 31.4202 543.917 49.0537 535.199 69.9469C526.807 90.0576 500.064 84.7163 496.188 94.0038L492.639 102.509L463.986 90.5528L468.99 78.1126C474.933 63.8699 502.964 66.125 506.519 57.6054C508.937 51.8098 503.489 47.8352 498.075 45.5761C491.398 42.79 480.467 45.8674 472.617 49.8556L462.901 25.9659ZM475.857 100.048C486.859 104.639 491.138 115.338 487.462 124.148C483.786 132.957 473.67 137.106 462.363 132.388C452.202 128.148 447.978 117.114 451.333 109.073C452.343 106.867 453.78 104.883 455.561 103.235C457.342 101.587 459.432 100.307 461.711 99.4683C463.989 98.6298 466.412 98.2493 468.84 98.3488C471.267 98.4483 473.652 99.0258 475.857 100.048Z" fill="white"/>
<path opacity="0.81" d="M169.541 116.585C174.309 104.045 182.865 94.5167 194.655 90.2143C210.33 84.4939 225.723 88.216 231.522 104.105C237.103 119.399 219.712 130.016 222.29 137.079L224.65 143.547L202.86 151.499L199.304 142.133C195.351 131.302 211.886 118.338 209.521 111.859C207.913 107.452 202.907 108.03 198.79 109.532C193.712 111.385 189.27 118.613 186.98 124.78L169.541 116.585ZM214.188 150.699C222.556 147.645 230.326 151.352 232.771 158.052C235.216 164.751 231.763 172.154 223.164 175.293C215.436 178.112 207.527 174.194 205.295 168.079C204.732 166.356 204.516 164.539 204.659 162.731C204.802 160.924 205.301 159.162 206.127 157.547C206.954 155.932 208.091 154.496 209.475 153.321C210.858 152.145 212.46 151.254 214.188 150.699Z" fill="white"/>
<path opacity="0.81" d="M466.41 27.4302C482.497 19.4277 499.548 17.8154 515.051 24.284C535.677 32.8906 547.426 50.5181 538.708 71.4112C530.317 91.522 503.573 86.1807 499.698 95.4682L496.149 103.973L467.51 92.0232L472.513 79.583C478.456 65.3403 506.488 67.5954 510.043 59.0758C512.461 53.2802 507.013 49.3057 501.584 47.0404C494.922 44.2604 483.991 47.3378 476.141 51.326L466.41 27.4302ZM479.366 101.512C490.383 106.11 494.647 116.803 490.971 125.612C487.296 134.421 477.194 138.576 465.872 133.852C455.798 129.649 451.502 118.584 454.857 110.543C455.866 108.336 457.302 106.351 459.082 104.702C460.863 103.052 462.953 101.771 465.232 100.933C467.512 100.094 469.935 99.7138 472.363 99.8143C474.791 99.9149 477.176 100.494 479.381 101.519L479.366 101.512Z" fill="#F9C610"/>
<path opacity="0.81" d="M172.21 115.611C176.989 103.067 185.534 93.5428 197.324 89.2404C213.01 83.5159 228.392 87.242 234.191 103.131C239.772 118.425 222.381 129.042 224.959 136.105L227.319 142.573L205.54 150.521L201.984 141.155C198.031 130.324 214.566 117.36 212.201 110.881C210.593 106.474 205.587 107.052 201.459 108.558C196.392 110.407 191.95 117.635 189.659 123.802L172.21 115.611ZM216.857 149.725C225.236 146.667 232.995 150.378 235.439 157.078C237.884 163.777 234.443 171.176 225.832 174.319C218.171 177.114 210.207 173.216 207.975 167.101C207.411 165.378 207.193 163.56 207.335 161.753C207.477 159.945 207.976 158.182 208.803 156.567C209.629 154.952 210.767 153.515 212.152 152.34C213.536 151.165 215.139 150.275 216.868 149.721L216.857 149.725Z" fill="#F9C610"/>
<g opacity="0.05">
<path d="M797 67.6898C858.712 -3.67735 938.04 -46 1026.21 -46C1143.45 -46 1236 15.6714 1236 134.638C1236 249.207 1095.84 277.415 1095.84 330.292V378.75H932.762L931.882 308.262C931.882 227.177 1072.04 181.358 1072.04 132.879C1072.04 99.3943 1037.71 91.4575 1006.81 91.4575C968.896 91.4575 922.183 128.482 892.207 163.726L797 67.6898ZM1009.43 400.801C1072.02 400.801 1114.34 443.982 1114.34 494.22C1114.34 543.557 1073.78 585 1009.43 585C952.138 585 908.944 539.953 908.944 494.22C908.965 450.16 945.98 400.801 1009.45 400.801H1009.43Z" fill="#3730A3"/>
<path d="M817 67.6898C878.709 -3.67735 958.055 -46 1046.2 -46C1163.44 -46 1256 15.6714 1256 134.638C1256 249.207 1115.82 277.415 1115.82 330.292V378.75H952.755L951.876 308.262C951.876 227.177 1092.03 181.358 1092.03 132.879C1092.03 99.3943 1057.7 91.4575 1026.8 91.4575C988.909 91.4575 942.177 128.482 912.202 163.726L817 67.6898ZM1029.42 400.801C1092.01 400.801 1134.32 443.982 1134.32 494.22C1134.32 543.557 1093.79 585 1029.42 585C972.13 585 928.939 539.953 928.939 494.22C928.939 450.16 965.972 400.801 1029.42 400.801Z" fill="white"/>
</g>
<path d="M578.963 259.36V281.408H552.392V359H524.691V281.408H498.403V259.36H578.963ZM641.364 279.005C650.409 279.005 657.57 282.068 662.846 288.192C668.217 294.222 670.902 302.42 670.902 312.784V359H643.201V316.459C643.201 311.936 642.023 308.403 639.668 305.859C637.312 303.22 634.156 301.901 630.198 301.901C626.052 301.901 622.802 303.22 620.446 305.859C618.091 308.403 616.913 311.936 616.913 316.459V359H589.212V254.413H616.913V291.019C619.363 287.438 622.66 284.564 626.806 282.397C631.046 280.136 635.899 279.005 641.364 279.005ZM761.857 318.437C761.857 320.604 761.715 322.772 761.433 324.939H708.998C709.281 329.273 710.459 332.524 712.532 334.691C714.699 336.764 717.431 337.8 720.729 337.8C725.346 337.8 728.644 335.727 730.622 331.581H760.161C758.936 337.046 756.533 341.946 752.953 346.28C749.467 350.52 745.038 353.865 739.668 356.315C734.297 358.764 728.361 359.989 721.86 359.989C714.039 359.989 707.067 358.34 700.942 355.043C694.912 351.745 690.154 347.034 686.668 340.909C683.275 334.785 681.579 327.577 681.579 319.285C681.579 310.994 683.275 303.833 686.668 297.803C690.059 291.678 694.771 286.967 700.801 283.669C706.925 280.372 713.945 278.723 721.86 278.723C729.68 278.723 736.605 280.324 742.636 283.528C748.666 286.732 753.377 291.348 756.769 297.379C760.161 303.315 761.857 310.334 761.857 318.437ZM733.59 311.512C733.59 308.12 732.46 305.482 730.198 303.597C727.937 301.619 725.11 300.629 721.718 300.629C718.326 300.629 715.547 301.572 713.38 303.456C711.212 305.246 709.799 307.932 709.14 311.512H733.59ZM878.968 292.573C878.968 298.604 877.555 304.116 874.728 309.109C871.996 314.009 867.803 317.966 862.149 320.981C856.59 323.902 849.759 325.363 841.656 325.363H827.947V359H800.245V259.36H841.656C849.665 259.36 856.449 260.773 862.008 263.6C867.661 266.427 871.901 270.337 874.728 275.331C877.555 280.324 878.968 286.072 878.968 292.573ZM838.971 303.315C846.791 303.315 850.701 299.734 850.701 292.573C850.701 285.318 846.791 281.691 838.971 281.691H827.947V303.315H838.971ZM904.089 272.363C899.189 272.363 895.232 271.044 892.217 268.405C889.296 265.673 887.836 262.281 887.836 258.229C887.836 254.084 889.296 250.644 892.217 247.912C895.232 245.18 899.189 243.813 904.089 243.813C908.894 243.813 912.757 245.18 915.678 247.912C918.693 250.644 920.201 254.084 920.201 258.229C920.201 262.281 918.693 265.673 915.678 268.405C912.757 271.044 908.894 272.363 904.089 272.363ZM917.798 279.712V359H890.097V279.712H917.798ZM929.051 319.285C929.051 311.088 930.747 303.927 934.139 297.803C937.531 291.678 942.242 286.967 948.272 283.669C954.397 280.372 961.369 278.723 969.19 278.723C979.271 278.723 987.751 281.502 994.63 287.061C1001.51 292.526 1005.94 300.205 1007.91 310.099H978.518C976.822 304.916 973.524 302.325 968.624 302.325C965.138 302.325 962.358 303.786 960.286 306.707C958.307 309.533 957.318 313.726 957.318 319.285C957.318 324.844 958.307 329.084 960.286 332.005C962.358 334.926 965.138 336.387 968.624 336.387C973.618 336.387 976.916 333.796 978.518 328.613H1007.91C1005.94 338.412 1001.51 346.092 994.63 351.651C987.751 357.21 979.271 359.989 969.19 359.989C961.369 359.989 954.397 358.34 948.272 355.043C942.242 351.745 937.531 347.034 934.139 340.909C930.747 334.785 929.051 327.577 929.051 319.285ZM1066.2 335.397V359H1054.19C1033.93 359 1023.8 348.965 1023.8 328.896V302.749H1014.05V279.712H1023.8V260.491H1051.65V279.712H1066.06V302.749H1051.65V329.32C1051.65 331.487 1052.12 333.042 1053.06 333.984C1054.1 334.926 1055.79 335.397 1058.15 335.397H1066.2ZM1160.03 279.712V359H1132.19V347.693C1129.84 351.274 1126.59 354.195 1122.44 356.456C1118.29 358.623 1113.54 359.707 1108.17 359.707C1098.93 359.707 1091.63 356.692 1086.26 350.661C1080.98 344.537 1078.34 336.245 1078.34 325.787V279.712H1105.9V322.253C1105.9 326.776 1107.08 330.356 1109.44 332.995C1111.89 335.539 1115.09 336.811 1119.05 336.811C1123.1 336.811 1126.3 335.539 1128.66 332.995C1131.01 330.356 1132.19 326.776 1132.19 322.253V279.712H1160.03ZM1203.5 293.704C1206.61 289.181 1210.38 285.601 1214.81 282.963C1219.24 280.324 1223.99 279.005 1229.08 279.005V308.544H1221.31C1215.28 308.544 1210.8 309.722 1207.88 312.077C1204.96 314.433 1203.5 318.532 1203.5 324.373V359H1175.8V279.712H1203.5V293.704ZM1314.77 318.437C1314.77 320.604 1314.63 322.772 1314.34 324.939H1261.91C1262.19 329.273 1263.37 332.524 1265.44 334.691C1267.61 336.764 1270.34 337.8 1273.64 337.8C1278.26 337.8 1281.55 335.727 1283.53 331.581H1313.07C1311.85 337.046 1309.44 341.946 1305.86 346.28C1302.38 350.52 1297.95 353.865 1292.58 356.315C1287.21 358.764 1281.27 359.989 1274.77 359.989C1266.95 359.989 1259.98 358.34 1253.85 355.043C1247.82 351.745 1243.07 347.034 1239.58 340.909C1236.19 334.785 1234.49 327.577 1234.49 319.285C1234.49 310.994 1236.19 303.833 1239.58 297.803C1242.97 291.678 1247.68 286.967 1253.71 283.669C1259.84 280.372 1266.86 278.723 1274.77 278.723C1282.59 278.723 1289.52 280.324 1295.55 283.528C1301.58 286.732 1306.29 291.348 1309.68 297.379C1313.07 303.315 1314.77 310.334 1314.77 318.437ZM1286.5 311.512C1286.5 308.12 1285.37 305.482 1283.11 303.597C1280.85 301.619 1278.02 300.629 1274.63 300.629C1271.24 300.629 1268.46 301.572 1266.29 303.456C1264.12 305.246 1262.71 307.932 1262.05 311.512H1286.5ZM1363.13 254.272L1359.88 321.688H1336.28L1333.03 254.272H1363.13ZM1348.15 360.131C1343.25 360.131 1339.3 358.812 1336.28 356.173C1333.36 353.441 1331.9 350.002 1331.9 345.856C1331.9 341.71 1333.36 338.271 1336.28 335.539C1339.3 332.806 1343.25 331.44 1348.15 331.44C1352.96 331.44 1356.82 332.806 1359.74 335.539C1362.76 338.271 1364.26 341.71 1364.26 345.856C1364.26 349.908 1362.76 353.3 1359.74 356.032C1356.82 358.764 1352.96 360.131 1348.15 360.131Z" fill="#3730A3"/>
<path d="M585.963 252.36V274.408H559.392V352H531.691V274.408H505.403V252.36H585.963ZM648.364 272.005C657.409 272.005 664.57 275.068 669.846 281.192C675.217 287.222 677.902 295.42 677.902 305.784V352H650.201V309.459C650.201 304.936 649.023 301.403 646.668 298.859C644.312 296.22 641.156 294.901 637.198 294.901C633.052 294.901 629.802 296.22 627.446 298.859C625.091 301.403 623.913 304.936 623.913 309.459V352H596.212V247.413H623.913V284.019C626.363 280.438 629.66 277.564 633.806 275.397C638.046 273.136 642.899 272.005 648.364 272.005ZM768.857 311.437C768.857 313.604 768.715 315.772 768.433 317.939H715.998C716.281 322.273 717.459 325.524 719.532 327.691C721.699 329.764 724.431 330.8 727.729 330.8C732.346 330.8 735.644 328.727 737.622 324.581H767.161C765.936 330.046 763.533 334.946 759.953 339.28C756.467 343.52 752.038 346.865 746.668 349.315C741.297 351.764 735.361 352.989 728.86 352.989C721.039 352.989 714.067 351.34 707.942 348.043C701.912 344.745 697.154 340.034 693.668 333.909C690.275 327.785 688.579 320.577 688.579 312.285C688.579 303.994 690.275 296.833 693.668 290.803C697.059 284.678 701.771 279.967 707.801 276.669C713.925 273.372 720.945 271.723 728.86 271.723C736.68 271.723 743.605 273.324 749.636 276.528C755.666 279.732 760.377 284.348 763.769 290.379C767.161 296.315 768.857 303.334 768.857 311.437ZM740.59 304.512C740.59 301.12 739.46 298.482 737.198 296.597C734.937 294.619 732.11 293.629 728.718 293.629C725.326 293.629 722.547 294.572 720.38 296.456C718.212 298.246 716.799 300.932 716.14 304.512H740.59ZM885.968 285.573C885.968 291.604 884.555 297.116 881.728 302.109C878.996 307.009 874.803 310.966 869.149 313.981C863.59 316.902 856.759 318.363 848.656 318.363H834.947V352H807.245V252.36H848.656C856.665 252.36 863.449 253.773 869.008 256.6C874.661 259.427 878.901 263.337 881.728 268.331C884.555 273.324 885.968 279.072 885.968 285.573ZM845.971 296.315C853.791 296.315 857.701 292.734 857.701 285.573C857.701 278.318 853.791 274.691 845.971 274.691H834.947V296.315H845.971ZM911.089 265.363C906.189 265.363 902.232 264.044 899.217 261.405C896.296 258.673 894.836 255.281 894.836 251.229C894.836 247.084 896.296 243.644 899.217 240.912C902.232 238.18 906.189 236.813 911.089 236.813C915.894 236.813 919.757 238.18 922.678 240.912C925.693 243.644 927.201 247.084 927.201 251.229C927.201 255.281 925.693 258.673 922.678 261.405C919.757 264.044 915.894 265.363 911.089 265.363ZM924.798 272.712V352H897.097V272.712H924.798ZM936.051 312.285C936.051 304.088 937.747 296.927 941.139 290.803C944.531 284.678 949.242 279.967 955.272 276.669C961.397 273.372 968.369 271.723 976.19 271.723C986.271 271.723 994.751 274.502 1001.63 280.061C1008.51 285.526 1012.94 293.205 1014.91 303.099H985.518C983.822 297.916 980.524 295.325 975.624 295.325C972.138 295.325 969.358 296.786 967.286 299.707C965.307 302.533 964.318 306.726 964.318 312.285C964.318 317.844 965.307 322.084 967.286 325.005C969.358 327.926 972.138 329.387 975.624 329.387C980.618 329.387 983.916 326.796 985.518 321.613H1014.91C1012.94 331.412 1008.51 339.092 1001.63 344.651C994.751 350.21 986.271 352.989 976.19 352.989C968.369 352.989 961.397 351.34 955.272 348.043C949.242 344.745 944.531 340.034 941.139 333.909C937.747 327.785 936.051 320.577 936.051 312.285ZM1073.2 328.397V352H1061.19C1040.93 352 1030.8 341.965 1030.8 321.896V295.749H1021.05V272.712H1030.8V253.491H1058.65V272.712H1073.06V295.749H1058.65V322.32C1058.65 324.487 1059.12 326.042 1060.06 326.984C1061.1 327.926 1062.79 328.397 1065.15 328.397H1073.2ZM1167.03 272.712V352H1139.19V340.693C1136.84 344.274 1133.59 347.195 1129.44 349.456C1125.29 351.623 1120.54 352.707 1115.17 352.707C1105.93 352.707 1098.63 349.692 1093.26 343.661C1087.98 337.537 1085.34 329.245 1085.34 318.787V272.712H1112.9V315.253C1112.9 319.776 1114.08 323.356 1116.44 325.995C1118.89 328.539 1122.09 329.811 1126.05 329.811C1130.1 329.811 1133.3 328.539 1135.66 325.995C1138.01 323.356 1139.19 319.776 1139.19 315.253V272.712H1167.03ZM1210.5 286.704C1213.61 282.181 1217.38 278.601 1221.81 275.963C1226.24 273.324 1230.99 272.005 1236.08 272.005V301.544H1228.31C1222.28 301.544 1217.8 302.722 1214.88 305.077C1211.96 307.433 1210.5 311.532 1210.5 317.373V352H1182.8V272.712H1210.5V286.704ZM1321.77 311.437C1321.77 313.604 1321.63 315.772 1321.34 317.939H1268.91C1269.19 322.273 1270.37 325.524 1272.44 327.691C1274.61 329.764 1277.34 330.8 1280.64 330.8C1285.26 330.8 1288.55 328.727 1290.53 324.581H1320.07C1318.85 330.046 1316.44 334.946 1312.86 339.28C1309.38 343.52 1304.95 346.865 1299.58 349.315C1294.21 351.764 1288.27 352.989 1281.77 352.989C1273.95 352.989 1266.98 351.34 1260.85 348.043C1254.82 344.745 1250.07 340.034 1246.58 333.909C1243.19 327.785 1241.49 320.577 1241.49 312.285C1241.49 303.994 1243.19 296.833 1246.58 290.803C1249.97 284.678 1254.68 279.967 1260.71 276.669C1266.84 273.372 1273.86 271.723 1281.77 271.723C1289.59 271.723 1296.52 273.324 1302.55 276.528C1308.58 279.732 1313.29 284.348 1316.68 290.379C1320.07 296.315 1321.77 303.334 1321.77 311.437ZM1293.5 304.512C1293.5 301.12 1292.37 298.482 1290.11 296.597C1287.85 294.619 1285.02 293.629 1281.63 293.629C1278.24 293.629 1275.46 294.572 1273.29 296.456C1271.12 298.246 1269.71 300.932 1269.05 304.512H1293.5ZM1370.13 247.272L1366.88 314.688H1343.28L1340.03 247.272H1370.13ZM1355.15 353.131C1350.25 353.131 1346.3 351.812 1343.28 349.173C1340.36 346.441 1338.9 343.002 1338.9 338.856C1338.9 334.71 1340.36 331.271 1343.28 328.539C1346.3 325.806 1350.25 324.44 1355.15 324.44C1359.96 324.44 1363.82 325.806 1366.74 328.539C1369.76 331.271 1371.26 334.71 1371.26 338.856C1371.26 342.908 1369.76 346.3 1366.74 349.032C1363.82 351.764 1359.96 353.131 1355.15 353.131Z" fill="white"/>
<path d="M536.492 200.758C535.719 199.485 534.651 198.508 533.288 197.827C531.97 197.145 530.402 196.804 528.584 196.804C525.222 196.804 522.563 197.895 520.609 200.076C518.7 202.257 517.746 205.189 517.746 208.87C517.746 213.005 518.769 216.163 520.814 218.344C522.904 220.48 525.926 221.548 529.88 221.548C534.56 221.548 537.9 219.435 539.9 215.209H526.471V205.598H551.42V218.549C550.375 221.094 548.829 223.48 546.785 225.706C544.785 227.933 542.24 229.774 539.15 231.228C536.06 232.636 532.538 233.341 528.584 233.341C523.767 233.341 519.496 232.318 515.769 230.273C512.088 228.183 509.226 225.297 507.181 221.616C505.181 217.89 504.181 213.641 504.181 208.87C504.181 204.143 505.181 199.94 507.181 196.259C509.226 192.533 512.088 189.647 515.769 187.602C519.45 185.512 523.699 184.466 528.516 184.466C534.56 184.466 539.559 185.921 543.513 188.829C547.466 191.737 549.92 195.714 550.874 200.758H536.492ZM596.534 194.759V233H583.105V227.547C581.969 229.274 580.402 230.682 578.402 231.773C576.402 232.818 574.108 233.341 571.517 233.341C567.064 233.341 563.542 231.887 560.952 228.978C558.407 226.024 557.134 222.025 557.134 216.981V194.759H570.427V215.277C570.427 217.458 570.995 219.185 572.131 220.458C573.312 221.685 574.857 222.298 576.766 222.298C578.72 222.298 580.265 221.685 581.401 220.458C582.537 219.185 583.105 217.458 583.105 215.277V194.759H596.534ZM640.674 213.437C640.674 214.482 640.606 215.527 640.47 216.572H615.18C615.317 218.663 615.885 220.23 616.884 221.276C617.93 222.275 619.247 222.775 620.838 222.775C623.065 222.775 624.655 221.775 625.61 219.776H639.856C639.265 222.412 638.107 224.775 636.38 226.865C634.698 228.91 632.562 230.523 629.972 231.705C627.382 232.886 624.519 233.477 621.383 233.477C617.612 233.477 614.249 232.682 611.295 231.091C608.387 229.501 606.092 227.229 604.41 224.275C602.774 221.321 601.956 217.845 601.956 213.846C601.956 209.847 602.774 206.393 604.41 203.484C606.046 200.531 608.318 198.258 611.227 196.668C614.181 195.077 617.566 194.282 621.383 194.282C625.155 194.282 628.495 195.055 631.404 196.6C634.312 198.145 636.584 200.372 638.22 203.28C639.856 206.143 640.674 209.528 640.674 213.437ZM627.041 210.096C627.041 208.461 626.496 207.188 625.405 206.279C624.314 205.325 622.951 204.848 621.315 204.848C619.679 204.848 618.339 205.302 617.293 206.211C616.248 207.075 615.567 208.37 615.248 210.096H627.041ZM662.433 233.477C658.979 233.477 655.889 232.909 653.163 231.773C650.482 230.591 648.346 229.001 646.755 227.001C645.21 224.957 644.347 222.662 644.165 220.117H657.116C657.298 221.344 657.866 222.298 658.82 222.98C659.775 223.661 660.956 224.002 662.365 224.002C663.456 224.002 664.319 223.775 664.955 223.321C665.591 222.866 665.91 222.275 665.91 221.548C665.91 220.594 665.387 219.89 664.342 219.435C663.297 218.981 661.57 218.481 659.161 217.935C656.435 217.39 654.162 216.777 652.345 216.095C650.527 215.413 648.936 214.3 647.573 212.755C646.255 211.21 645.596 209.119 645.596 206.484C645.596 204.212 646.21 202.167 647.437 200.349C648.664 198.486 650.459 197.009 652.822 195.918C655.23 194.827 658.116 194.282 661.479 194.282C666.478 194.282 670.408 195.509 673.271 197.963C676.134 200.417 677.793 203.644 678.247 207.643H666.182C665.955 206.416 665.41 205.484 664.546 204.848C663.728 204.166 662.615 203.825 661.206 203.825C660.116 203.825 659.275 204.03 658.684 204.439C658.139 204.848 657.866 205.416 657.866 206.143C657.866 207.052 658.389 207.756 659.434 208.256C660.479 208.71 662.161 209.188 664.478 209.688C667.25 210.278 669.545 210.937 671.363 211.664C673.226 212.391 674.839 213.573 676.203 215.209C677.611 216.799 678.316 218.981 678.316 221.753C678.316 223.979 677.657 225.979 676.339 227.751C675.066 229.524 673.226 230.932 670.817 231.978C668.454 232.977 665.66 233.477 662.433 233.477ZM701.175 233.477C697.722 233.477 694.632 232.909 691.905 231.773C689.224 230.591 687.088 229.001 685.497 227.001C683.952 224.957 683.089 222.662 682.907 220.117H695.859C696.04 221.344 696.608 222.298 697.563 222.98C698.517 223.661 699.699 224.002 701.107 224.002C702.198 224.002 703.061 223.775 703.698 223.321C704.334 222.866 704.652 222.275 704.652 221.548C704.652 220.594 704.129 219.89 703.084 219.435C702.039 218.981 700.312 218.481 697.904 217.935C695.177 217.39 692.905 216.777 691.087 216.095C689.269 215.413 687.679 214.3 686.315 212.755C684.998 211.21 684.339 209.119 684.339 206.484C684.339 204.212 684.952 202.167 686.179 200.349C687.406 198.486 689.201 197.009 691.564 195.918C693.973 194.827 696.858 194.282 700.221 194.282C705.22 194.282 709.151 195.509 712.014 197.963C714.877 200.417 716.535 203.644 716.99 207.643H704.925C704.697 206.416 704.152 205.484 703.289 204.848C702.471 204.166 701.357 203.825 699.949 203.825C698.858 203.825 698.017 204.03 697.426 204.439C696.881 204.848 696.608 205.416 696.608 206.143C696.608 207.052 697.131 207.756 698.176 208.256C699.221 208.71 700.903 209.188 703.22 209.688C705.992 210.278 708.287 210.937 710.105 211.664C711.968 212.391 713.582 213.573 714.945 215.209C716.354 216.799 717.058 218.981 717.058 221.753C717.058 223.979 716.399 225.979 715.081 227.751C713.809 229.524 711.968 230.932 709.56 231.978C707.197 232.977 704.402 233.477 701.175 233.477Z" fill="white"/>
<path d="M529.492 207.758C528.719 206.485 527.651 205.508 526.288 204.827C524.97 204.145 523.402 203.804 521.584 203.804C518.222 203.804 515.563 204.895 513.609 207.076C511.7 209.257 510.746 212.189 510.746 215.87C510.746 220.005 511.769 223.163 513.814 225.344C515.904 227.48 518.926 228.548 522.88 228.548C527.56 228.548 530.9 226.435 532.9 222.209H519.471V212.598H544.42V225.549C543.375 228.094 541.829 230.48 539.785 232.706C537.785 234.933 535.24 236.774 532.15 238.228C529.06 239.636 525.538 240.341 521.584 240.341C516.767 240.341 512.496 239.318 508.769 237.273C505.088 235.183 502.226 232.297 500.181 228.616C498.181 224.89 497.181 220.641 497.181 215.87C497.181 211.143 498.181 206.94 500.181 203.259C502.226 199.533 505.088 196.647 508.769 194.602C512.45 192.512 516.699 191.466 521.516 191.466C527.56 191.466 532.559 192.921 536.513 195.829C540.466 198.737 542.92 202.714 543.874 207.758H529.492ZM589.534 201.759V240H576.105V234.547C574.969 236.274 573.402 237.682 571.402 238.773C569.402 239.818 567.108 240.341 564.517 240.341C560.064 240.341 556.542 238.887 553.952 235.978C551.407 233.024 550.134 229.025 550.134 223.981V201.759H563.427V222.277C563.427 224.458 563.995 226.185 565.131 227.458C566.312 228.685 567.857 229.298 569.766 229.298C571.72 229.298 573.265 228.685 574.401 227.458C575.537 226.185 576.105 224.458 576.105 222.277V201.759H589.534ZM633.674 220.437C633.674 221.482 633.606 222.527 633.47 223.572H608.18C608.317 225.663 608.885 227.23 609.884 228.276C610.93 229.275 612.247 229.775 613.838 229.775C616.065 229.775 617.655 228.775 618.61 226.776H632.856C632.265 229.412 631.107 231.775 629.38 233.865C627.698 235.91 625.562 237.523 622.972 238.705C620.382 239.886 617.519 240.477 614.383 240.477C610.612 240.477 607.249 239.682 604.295 238.091C601.387 236.501 599.092 234.229 597.41 231.275C595.774 228.321 594.956 224.845 594.956 220.846C594.956 216.847 595.774 213.393 597.41 210.484C599.046 207.531 601.318 205.258 604.227 203.668C607.181 202.077 610.566 201.282 614.383 201.282C618.155 201.282 621.495 202.055 624.404 203.6C627.312 205.145 629.584 207.372 631.22 210.28C632.856 213.143 633.674 216.528 633.674 220.437ZM620.041 217.096C620.041 215.461 619.496 214.188 618.405 213.279C617.314 212.325 615.951 211.848 614.315 211.848C612.679 211.848 611.339 212.302 610.293 213.211C609.248 214.075 608.567 215.37 608.248 217.096H620.041ZM655.433 240.477C651.979 240.477 648.889 239.909 646.163 238.773C643.482 237.591 641.346 236.001 639.755 234.001C638.21 231.957 637.347 229.662 637.165 227.117H650.116C650.298 228.344 650.866 229.298 651.82 229.98C652.775 230.661 653.956 231.002 655.365 231.002C656.456 231.002 657.319 230.775 657.955 230.321C658.591 229.866 658.91 229.275 658.91 228.548C658.91 227.594 658.387 226.89 657.342 226.435C656.297 225.981 654.57 225.481 652.161 224.935C649.435 224.39 647.162 223.777 645.345 223.095C643.527 222.413 641.936 221.3 640.573 219.755C639.255 218.21 638.596 216.119 638.596 213.484C638.596 211.212 639.21 209.167 640.437 207.349C641.664 205.486 643.459 204.009 645.822 202.918C648.23 201.827 651.116 201.282 654.479 201.282C659.478 201.282 663.408 202.509 666.271 204.963C669.134 207.417 670.793 210.644 671.247 214.643H659.182C658.955 213.416 658.41 212.484 657.546 211.848C656.728 211.166 655.615 210.825 654.206 210.825C653.116 210.825 652.275 211.03 651.684 211.439C651.139 211.848 650.866 212.416 650.866 213.143C650.866 214.052 651.389 214.756 652.434 215.256C653.479 215.71 655.161 216.188 657.478 216.688C660.25 217.278 662.545 217.937 664.363 218.664C666.226 219.391 667.839 220.573 669.203 222.209C670.611 223.799 671.316 225.981 671.316 228.753C671.316 230.979 670.657 232.979 669.339 234.751C668.066 236.524 666.226 237.932 663.817 238.978C661.454 239.977 658.66 240.477 655.433 240.477ZM694.175 240.477C690.722 240.477 687.632 239.909 684.905 238.773C682.224 237.591 680.088 236.001 678.497 234.001C676.952 231.957 676.089 229.662 675.907 227.117H688.859C689.04 228.344 689.608 229.298 690.563 229.98C691.517 230.661 692.699 231.002 694.107 231.002C695.198 231.002 696.061 230.775 696.698 230.321C697.334 229.866 697.652 229.275 697.652 228.548C697.652 227.594 697.129 226.89 696.084 226.435C695.039 225.981 693.312 225.481 690.904 224.935C688.177 224.39 685.905 223.777 684.087 223.095C682.269 222.413 680.679 221.3 679.315 219.755C677.998 218.21 677.339 216.119 677.339 213.484C677.339 211.212 677.952 209.167 679.179 207.349C680.406 205.486 682.201 204.009 684.564 202.918C686.973 201.827 689.858 201.282 693.221 201.282C698.22 201.282 702.151 202.509 705.014 204.963C707.877 207.417 709.535 210.644 709.99 214.643H697.925C697.697 213.416 697.152 212.484 696.289 211.848C695.471 211.166 694.357 210.825 692.949 210.825C691.858 210.825 691.017 211.03 690.426 211.439C689.881 211.848 689.608 212.416 689.608 213.143C689.608 214.052 690.131 214.756 691.176 215.256C692.221 215.71 693.903 216.188 696.22 216.688C698.992 217.278 701.287 217.937 703.105 218.664C704.968 219.391 706.582 220.573 707.945 222.209C709.354 223.799 710.058 225.981 710.058 228.753C710.058 230.979 709.399 232.979 708.081 234.751C706.809 236.524 704.968 237.932 702.56 238.978C700.197 239.977 697.402 240.477 694.175 240.477Z" fill="#3730A3"/>
<path fill-rule="evenodd" clip-rule="evenodd" d="M1448.4 44.6534C1437.35 44.6534 1428.4 53.6077 1428.4 64.6534V326.653C1428.4 337.699 1437.35 346.653 1448.4 346.653H1829.4C1840.44 346.653 1849.4 337.699 1849.4 326.653V64.6534C1849.4 53.6077 1840.44 44.6534 1829.4 44.6534H1448.4ZM1463.74 60.6534C1453.61 60.6534 1445.4 68.8633 1445.4 78.9907V312.316C1445.4 322.444 1453.61 330.653 1463.74 330.653H1813.06C1823.19 330.653 1831.4 322.444 1831.4 312.316V78.9907C1831.4 68.8633 1823.19 60.6534 1813.06 60.6534H1463.74Z" fill="white"/>
<path opacity="0.35" d="M1770.08 370.084C1842.26 297.903 1842.26 180.875 1770.08 108.695C1697.9 36.514 1580.88 36.514 1508.69 108.695C1436.51 180.875 1436.51 297.903 1508.69 370.084C1580.88 442.264 1697.9 442.264 1770.08 370.084Z" fill="#FEFEFE"/>
<path d="M1488.33 457.124C1528 457.124 1560.17 455.329 1560.17 453.114C1560.17 450.899 1528 449.104 1488.33 449.104C1448.65 449.104 1416.49 450.899 1416.49 453.114C1416.49 455.329 1448.65 457.124 1488.33 457.124Z" fill="#1D4ED8"/>
<path d="M1518.93 308.704V446.494H1484.9L1488.59 342.624L1475.89 446.494H1441.87L1468.03 308.704H1518.93Z" fill="#F59E0B"/>
<path d="M1476.12 222.123L1475.39 222.383C1471.9 223.637 1468.81 225.811 1466.45 228.675C1464.1 231.539 1462.56 234.986 1462 238.653L1456.5 274.543L1471.73 269.053L1476.12 222.123Z" fill="#CFCFD0"/>
<path d="M1461.02 245.004L1456.5 274.524L1471.73 269.034L1473.78 247.194L1461.02 245.004Z" fill="#D18E86"/>
<path d="M1499.1 217.753L1518.93 226.523V308.703H1468.03L1476.12 222.123L1499.1 217.753Z" fill="white"/>
<path d="M1487.93 192.583C1487.83 191.08 1488.3 189.595 1489.25 188.423C1490.79 186.793 1497.11 184.173 1502.99 187.703C1508.87 191.233 1511.84 196.463 1508.99 206.583C1506.64 213.183 1502.81 214.903 1502.81 214.903L1494.91 203.783L1487.93 192.583Z" fill="#C73C27"/>
<path d="M1494.61 235.824L1482.9 279.134C1482.12 282.028 1480.7 284.711 1478.75 286.987C1476.8 289.262 1474.36 291.072 1471.62 292.284L1469.47 293.224L1473.67 248.324L1494.61 235.824Z" fill="#A4A4A4"/>
<path d="M1518.93 285.654C1518.93 285.654 1503.7 286.924 1503.7 308.744H1518.93V285.654Z" fill="#A4A4A4"/>
<path d="M1488 192.173C1488 192.173 1486 203.293 1486.2 210.623C1486.21 211.095 1486.4 211.544 1486.73 211.884C1487.05 212.224 1487.5 212.431 1487.97 212.463L1494.58 212.923L1493.4 220.183C1493.3 220.748 1493.33 221.327 1493.48 221.879C1493.63 222.432 1493.9 222.945 1494.27 223.383C1494.64 223.821 1495.1 224.173 1495.62 224.415C1496.14 224.657 1496.7 224.782 1497.28 224.783H1498.4C1499.38 224.768 1500.32 224.391 1501.05 223.726C1501.77 223.06 1502.22 222.151 1502.32 221.173L1503.73 204.593C1503.73 204.593 1489.4 198.903 1488 192.173Z" fill="#F7A89C"/>
<path d="M1503.35 207.843C1505.24 207.843 1506.78 206.307 1506.78 204.413C1506.78 202.518 1505.24 200.983 1503.35 200.983C1501.45 200.983 1499.92 202.518 1499.92 204.413C1499.92 206.307 1501.45 207.843 1503.35 207.843Z" fill="#F7A89C"/>
<path d="M1490.15 202.243C1490.06 203.243 1489.71 203.973 1489.36 203.943C1489.01 203.913 1488.8 203.103 1488.89 202.133C1488.98 201.163 1489.34 200.403 1489.68 200.433C1490.02 200.463 1490.24 201.273 1490.15 202.243Z" fill="#C73C27"/>
<path d="M1488.87 198.653C1489.31 198.577 1489.77 198.611 1490.2 198.753C1490.63 198.894 1491.01 199.138 1491.33 199.463" stroke="#C73C27" stroke-width="1.2" stroke-miterlimit="10" stroke-linecap="round"/>
<path d="M1494.58 212.923H1498.3C1498.3 212.923 1495.92 220.113 1493.25 220.803L1494.58 212.923Z" fill="#4D3529"/>
<path d="M1518.93 226.523L1523.1 228.523C1528.96 231.411 1533.63 236.267 1536.28 242.243L1552.95 279.813C1553.71 281.516 1554.12 283.355 1554.15 285.22C1554.18 287.084 1553.83 288.936 1553.12 290.662C1552.42 292.388 1551.37 293.953 1550.04 295.263C1548.71 296.573 1547.13 297.6 1545.4 298.283L1518.94 308.703H1515.02C1513.56 308.703 1512.16 308.122 1511.12 307.089C1510.09 306.056 1509.51 304.654 1509.51 303.193V294.273C1509.51 293.159 1509.85 292.071 1510.48 291.153C1511.11 290.236 1512.01 289.531 1513.05 289.133L1530.14 282.593L1516.5 253.243C1516.5 253.243 1512.4 228.913 1518.93 226.523Z" fill="#F7A89C"/>
<path d="M1484.9 446.494C1484.9 446.494 1481.83 446.014 1480.4 451.724H1518.93V446.494H1484.9Z" fill="#4D3529"/>
<path d="M1441.73 446.494C1441.73 446.494 1438.66 446.014 1437.23 451.724H1475.76V446.494H1441.73Z" fill="#4D3529"/>
<path d="M1536.28 242.283C1533.63 236.307 1528.96 231.451 1523.1 228.563L1518.93 226.563C1512.41 228.953 1516.5 253.283 1516.5 253.283L1521.22 263.443C1526.22 260.443 1533.95 256.573 1542.16 255.573L1536.28 242.283Z" fill="#CFCFD0"/>
<path d="M1542.16 289.244C1542.16 290.918 1542.57 292.565 1543.37 294.038C1544.16 295.512 1545.31 296.764 1546.71 297.684C1549.82 296.061 1552.19 293.314 1553.35 290.003C1554.51 286.691 1554.37 283.063 1552.95 279.854L1552.63 279.144H1552.28C1549.6 279.144 1547.03 280.207 1545.13 282.101C1543.23 283.995 1542.16 286.564 1542.16 289.244Z" fill="#EF7D6E"/>
<g style="mix-blend-mode:overlay" opacity="0.41">
<path d="M1518.93 308.704H1507.04V446.494H1518.93V308.704Z" fill="white"/>
</g>
<g style="mix-blend-mode:multiply">
<path d="M1488.54 343.904C1488.54 343.904 1471.48 380.244 1465.14 446.484H1475.89L1488.54 343.904Z" fill="#F59E0B"/>
</g>
<g style="mix-blend-mode:multiply">
<path d="M1468.03 308.704L1518.93 320.484V308.704H1468.03Z" fill="#F59E0B"/>
</g>
<g style="mix-blend-mode:multiply">
<path d="M1488.54 343.904V308.704H1480.4C1480.4 308.704 1479.4 336.734 1488.54 343.904Z" fill="#F59E0B"/>
</g>
<g style="mix-blend-mode:multiply" opacity="0.41">
<path d="M1452.4 401.504C1456.1 401.508 1459.67 400.158 1462.44 397.708C1465.22 395.259 1467 391.88 1467.45 388.208C1467.9 384.536 1467 380.825 1464.9 377.776C1462.81 374.727 1459.67 372.549 1456.08 371.654L1450.4 401.364C1451.06 401.458 1451.73 401.504 1452.4 401.504Z" fill="#F59E0B"/>
</g>
<g style="mix-blend-mode:multiply" opacity="0.41">
<g style="mix-blend-mode:multiply" opacity="0.41">
<path d="M1488.54 371.184C1488.22 371.184 1487.9 371.184 1487.54 371.234L1486.5 401.354C1487.16 401.448 1487.83 401.498 1488.5 401.504C1492.52 401.504 1496.37 399.907 1499.22 397.064C1502.06 394.221 1503.66 390.365 1503.66 386.344C1503.66 382.323 1502.06 378.467 1499.22 375.624C1496.37 372.781 1492.52 371.184 1488.5 371.184H1488.54Z" fill="#F59E0B"/>
</g>
</g>
<g style="mix-blend-mode:overlay" opacity="0.41">
<path d="M1513.04 289.134C1512 289.532 1511.1 290.237 1510.47 291.155C1509.84 292.072 1509.5 293.16 1509.5 294.274V303.194C1509.5 304.655 1510.08 306.057 1511.11 307.09C1512.15 308.124 1513.55 308.704 1515.01 308.704H1518.93C1518.93 290.504 1513.04 289.134 1513.04 289.134Z" fill="white"/>
</g>
<g style="mix-blend-mode:overlay" opacity="0.41">
<path d="M1536.28 242.283C1534.14 237.461 1530.67 233.347 1526.28 230.423C1525.77 238.533 1525.77 254.023 1531.84 264.523C1539.53 277.843 1545.78 290.083 1552.06 292.713C1553.25 290.807 1553.95 288.638 1554.11 286.396C1554.27 284.154 1553.88 281.908 1552.97 279.853L1536.28 242.283Z" fill="white"/>
</g>
<g style="mix-blend-mode:multiply" opacity="0.36">
<path d="M1489.25 188.423C1488.3 189.595 1487.83 191.08 1487.93 192.583C1487.58 194.643 1486.06 204.113 1486.2 210.583C1486.21 211.054 1486.4 211.504 1486.73 211.844C1487.05 212.184 1487.5 212.391 1487.97 212.423L1491.56 212.673C1500.11 205.283 1495.41 187.543 1494.99 186.023C1492.88 186.226 1490.88 187.063 1489.25 188.423ZM1488.34 193.233L1489.89 195.703C1489.25 194.965 1488.72 194.132 1488.34 193.233Z" fill="#851619"/>
</g>
<path d="M1486.08 209.333L1457.4 271.213C1456.43 273.281 1456.2 275.616 1456.75 277.832C1457.3 280.047 1458.58 282.009 1460.4 283.393L1460.56 283.523C1461.77 284.462 1463.19 285.111 1464.69 285.419C1466.19 285.727 1467.75 285.686 1469.23 285.3C1470.72 284.914 1472.1 284.192 1473.26 283.191C1474.43 282.189 1475.34 280.935 1475.95 279.523L1494.6 235.833C1495.27 234.28 1495.44 232.56 1495.09 230.906C1494.74 229.252 1493.89 227.745 1492.66 226.593L1487.86 222.133L1489.11 210.193C1489.14 209.888 1489.09 209.58 1488.95 209.307C1488.81 209.033 1488.59 208.806 1488.33 208.653C1488.14 208.538 1487.93 208.464 1487.71 208.436C1487.49 208.408 1487.26 208.427 1487.05 208.491C1486.84 208.555 1486.64 208.663 1486.48 208.808C1486.31 208.953 1486.17 209.132 1486.08 209.333Z" fill="#F7A89C"/>
<path d="M1474.5 281.914C1473.24 279.1 1471.2 276.709 1468.61 275.029C1466.03 273.349 1463.01 272.451 1459.93 272.444C1458.9 272.445 1457.88 272.549 1456.87 272.754C1456.33 274.677 1456.37 276.719 1457 278.615C1457.63 280.512 1458.81 282.176 1460.4 283.394L1460.56 283.524C1462.63 285.127 1465.25 285.856 1467.86 285.555C1470.46 285.254 1472.84 283.948 1474.5 281.914Z" fill="#EF7D6E"/>
<g style="mix-blend-mode:overlay" opacity="0.41">
<path d="M1502.99 187.703C1501.43 186.761 1499.68 186.183 1497.87 186.013C1499.47 191.013 1502.96 198.443 1510.03 201.243C1510.58 194.503 1507.72 190.543 1502.99 187.703Z" fill="white"/>
</g>
<path d="M1530.13 282.594L1537.34 279.124" stroke="#983533" stroke-width="1.13" stroke-miterlimit="10"/>
<path d="M1509.5 295.844L1514.22 297.684" stroke="#983533" stroke-width="1.13" stroke-miterlimit="10"/>
<path d="M1509.5 301.014L1514.22 302.854" stroke="#983533" stroke-width="1.13" stroke-miterlimit="10"/>
<path d="M1516.5 253.244C1516.5 253.244 1513.93 273.244 1518.93 279.124L1519.7 260.124L1516.5 253.244Z" fill="#A4A4A4"/>
<path opacity="0.41" d="M1507.72 244.964C1507.72 244.964 1494.58 284.164 1486.5 289.654C1478.42 295.144 1499.5 293.514 1504.62 274.504C1509.74 255.494 1507.72 244.964 1507.72 244.964Z" fill="#CFCFD0"/>
<g style="mix-blend-mode:overlay" opacity="0.41">
<path d="M1492.67 226.583L1487.87 222.123C1487.87 222.123 1469.74 250.563 1479.15 272.043L1494.61 235.823C1495.28 234.27 1495.45 232.55 1495.1 230.896C1494.75 229.242 1493.9 227.735 1492.67 226.583Z" fill="white"/>
</g>
<path d="M1467.95 108.083C1475.42 99.4334 1485.04 94.3034 1495.72 94.3034C1509.92 94.3034 1521.14 101.783 1521.14 116.203C1521.14 130.083 1504.14 133.503 1504.14 139.913V145.783H1484.4L1484.29 137.243C1484.29 127.413 1501.29 121.863 1501.29 115.983C1501.29 111.983 1497.12 110.983 1493.39 110.983C1488.79 110.983 1483.13 115.473 1479.5 119.743L1467.95 108.083ZM1493.69 148.453C1501.27 148.453 1506.4 153.693 1506.4 159.773C1506.4 165.853 1501.48 170.773 1493.69 170.773C1486.69 170.773 1481.51 165.323 1481.51 159.773C1481.56 158.229 1481.92 156.711 1482.56 155.305C1483.2 153.899 1484.11 152.634 1485.25 151.582C1486.38 150.53 1487.71 149.713 1489.15 149.176C1490.6 148.639 1492.14 148.393 1493.69 148.453Z" fill="#1D4ED8"/>
<path d="M1470.4 108.083C1477.88 99.4334 1487.49 94.3034 1498.17 94.3034C1512.38 94.3034 1523.59 101.783 1523.59 116.203C1523.59 130.083 1506.59 133.503 1506.59 139.913V145.783H1486.86L1486.75 137.243C1486.75 127.413 1503.75 121.863 1503.75 115.983C1503.75 111.983 1499.58 110.983 1495.84 110.983C1491.25 110.983 1485.59 115.473 1481.96 119.743L1470.4 108.083ZM1496.14 148.453C1503.73 148.453 1508.85 153.693 1508.85 159.773C1508.85 165.853 1503.94 170.773 1496.14 170.773C1489.2 170.773 1483.97 165.323 1483.97 159.773C1484.02 158.229 1484.38 156.71 1485.02 155.303C1485.66 153.897 1486.57 152.631 1487.7 151.579C1488.83 150.527 1490.16 149.709 1491.61 149.173C1493.06 148.636 1494.6 148.392 1496.15 148.453H1496.14Z" fill="white"/>
<path d="M1479.48 119.723H1481.95L1479.44 117.193L1479.48 119.723Z" fill="#1D4ED8"/>
<g opacity="0.53">
<path opacity="0.53" d="M1546.11 55.9334C1551.83 49.3134 1559.18 45.3934 1567.35 45.3934C1578.21 45.3934 1586.78 51.1134 1586.78 62.1334C1586.78 72.7534 1573.78 75.3734 1573.78 80.2734V84.7634H1558.69L1558.61 78.2234C1558.61 70.7134 1571.61 66.4634 1571.61 61.9734C1571.61 58.8734 1568.43 58.1334 1565.61 58.1334C1562.1 58.1334 1557.77 61.5634 1554.99 64.8334L1546.11 55.9334ZM1565.79 86.8034C1571.59 86.8034 1575.51 90.8034 1575.51 95.4634C1575.51 100.123 1571.76 103.873 1565.79 103.873C1560.48 103.873 1556.48 99.7034 1556.48 95.4634C1556.57 93.0813 1557.6 90.8316 1559.34 89.208C1561.09 87.5844 1563.41 86.7196 1565.79 86.8034Z" fill="white"/>
</g>
<g opacity="0.36">
<path opacity="0.36" d="M1702.84 117.573C1707.9 111.713 1714.41 108.243 1721.65 108.243C1731.27 108.243 1738.86 113.313 1738.86 123.073C1738.86 132.473 1727.36 134.793 1727.36 139.133V143.133H1713.98L1713.91 137.353C1713.91 130.693 1725.41 126.933 1725.41 122.953C1725.41 120.213 1722.59 119.563 1720.05 119.563C1716.94 119.563 1713.11 122.563 1710.65 125.493L1702.84 117.573ZM1720.27 144.913C1725.41 144.913 1728.88 148.463 1728.88 152.583C1728.88 156.703 1725.55 160.033 1720.27 160.033C1715.57 160.033 1712.03 156.343 1712.03 152.583C1712.06 151.537 1712.3 150.509 1712.74 149.557C1713.17 148.605 1713.79 147.748 1714.55 147.035C1715.32 146.322 1716.22 145.768 1717.2 145.404C1718.18 145.04 1719.22 144.873 1720.27 144.913Z" fill="white"/>
</g>
<g opacity="0.21">
<path opacity="0.21" d="M1729.63 30.0834C1733.22 25.9334 1737.82 23.4734 1742.95 23.4734C1749.76 23.4734 1755.13 27.0634 1755.13 33.9734C1755.13 40.6334 1746.99 42.2734 1746.99 45.3434V48.1634H1737.52L1737.47 44.0634C1737.47 39.3534 1745.61 36.6934 1745.61 33.8734C1745.61 31.9234 1743.61 31.4634 1741.82 31.4634C1739.62 31.4634 1736.9 33.6234 1735.16 35.6634L1729.63 30.0834ZM1741.97 49.4434C1745.61 49.4434 1748.07 51.9534 1748.07 54.8734C1748.07 57.7934 1745.71 60.1434 1741.97 60.1434C1740.5 60.1885 1739.08 59.6652 1737.99 58.683C1736.9 57.7008 1736.23 56.3357 1736.13 54.8734C1736.15 54.133 1736.33 53.405 1736.63 52.7311C1736.94 52.0572 1737.38 51.4507 1737.92 50.9462C1738.46 50.4418 1739.1 50.0494 1739.79 49.7915C1740.49 49.5336 1741.23 49.4153 1741.97 49.4434Z" fill="white"/>
</g>
<g opacity="0.21">
<path opacity="0.21" d="M1829.67 144.453C1830.75 143.097 1832.12 141.996 1833.67 141.228C1835.23 140.461 1836.93 140.046 1838.67 140.013C1843.26 140.013 1846.88 142.423 1846.88 147.073C1846.88 151.563 1841.39 152.663 1841.39 154.733V156.653H1835.02V153.903C1835.02 150.723 1840.5 148.903 1840.5 147.043C1840.5 145.733 1839.16 145.413 1837.95 145.413C1836.47 145.413 1834.64 146.863 1833.47 148.243L1829.67 144.453ZM1837.98 157.453C1838.49 157.415 1839 157.48 1839.49 157.644C1839.97 157.808 1840.42 158.069 1840.8 158.409C1841.18 158.75 1841.49 159.163 1841.71 159.626C1841.93 160.089 1842.06 160.591 1842.08 161.103C1842.08 163.033 1840.49 164.653 1837.98 164.653C1837.48 164.69 1836.99 164.624 1836.52 164.46C1836.05 164.296 1835.62 164.037 1835.25 163.699C1834.89 163.361 1834.6 162.951 1834.4 162.496C1834.2 162.041 1834.1 161.549 1834.1 161.053C1834.1 160.556 1834.2 160.065 1834.4 159.609C1834.6 159.154 1834.89 158.745 1835.25 158.407C1835.62 158.069 1836.05 157.81 1836.52 157.646C1836.99 157.481 1837.48 157.416 1837.98 157.453Z" fill="white"/>
</g>
<g opacity="0.32">
<path opacity="0.32" d="M1462.79 39.6534C1466.79 35.0834 1471.79 32.3734 1477.46 32.3734C1484.96 32.3734 1490.89 36.3234 1490.89 43.9434C1490.89 51.2734 1481.89 53.0734 1481.89 56.4634V59.5634H1471.48V55.0534C1471.48 49.8634 1480.48 46.9334 1480.48 43.8234C1480.48 41.6834 1478.28 41.1734 1476.31 41.1734C1473.88 41.1734 1470.89 43.5434 1468.98 45.8034L1462.79 39.6534ZM1476.4 60.9934C1480.4 60.9934 1483.11 63.7534 1483.11 66.9934C1483.11 70.2334 1480.51 72.7834 1476.4 72.7834C1472.73 72.7834 1469.97 69.9034 1469.97 66.9734C1470 66.1582 1470.19 65.3566 1470.52 64.6145C1470.86 63.8724 1471.34 63.2045 1471.94 62.6489C1472.54 62.0934 1473.24 61.6612 1474 61.3771C1474.77 61.0931 1475.58 60.9626 1476.4 60.9934Z" fill="white"/>
</g>
<g opacity="0.16">
<path opacity="0.16" d="M1437.84 108.523C1439.02 107.042 1440.52 105.838 1442.22 104.997C1443.92 104.155 1445.79 103.697 1447.69 103.653C1452.69 103.653 1456.69 106.303 1456.69 111.423C1456.69 116.343 1450.69 117.553 1450.69 119.823V121.913H1443.69V118.913C1443.69 115.423 1449.69 113.453 1449.69 111.373C1449.69 109.933 1448.21 109.593 1446.88 109.593C1445.26 109.593 1443.25 111.183 1441.96 112.703L1437.84 108.523ZM1446.97 122.833C1447.53 122.791 1448.09 122.862 1448.62 123.042C1449.16 123.222 1449.65 123.506 1450.07 123.879C1450.49 124.252 1450.83 124.706 1451.07 125.214C1451.32 125.721 1451.45 126.272 1451.48 126.833C1451.48 128.953 1449.73 130.733 1446.97 130.733C1446.4 130.814 1445.82 130.772 1445.27 130.61C1444.72 130.448 1444.22 130.17 1443.78 129.795C1443.35 129.419 1443 128.955 1442.76 128.434C1442.53 127.913 1442.4 127.346 1442.4 126.773C1442.4 126.2 1442.53 125.634 1442.76 125.113C1443 124.592 1443.35 124.128 1443.78 123.752C1444.22 123.377 1444.72 123.098 1445.27 122.937C1445.82 122.775 1446.4 122.733 1446.97 122.813V122.833Z" fill="white"/>
</g>
<path d="M1748.21 90.6534C1757.77 79.5834 1770.06 73.0334 1783.72 73.0334C1801.88 73.0334 1816.22 82.5934 1816.22 101.033C1816.22 118.793 1794.51 123.163 1794.51 131.353V138.863H1769.25L1769.11 127.943C1769.11 115.373 1790.82 108.273 1790.82 100.763C1790.82 95.5734 1785.5 94.3434 1780.72 94.3434C1774.84 94.3434 1767.61 100.083 1762.96 105.543L1748.21 90.6534ZM1781.13 142.263C1790.82 142.263 1797.38 148.963 1797.38 156.743C1797.38 164.523 1791.09 170.813 1781.13 170.813C1772.25 170.813 1765.56 163.813 1765.56 156.743C1765.56 149.883 1771.29 142.233 1781.13 142.233V142.263Z" fill="#1D4ED8"/>
<path d="M1751.4 90.6534C1760.96 79.5834 1773.25 73.0334 1786.9 73.0334C1805.07 73.0334 1819.4 82.5934 1819.4 101.033C1819.4 118.793 1797.69 123.163 1797.69 131.353V138.863H1772.4L1772.26 127.943C1772.26 115.373 1793.97 108.273 1793.97 100.763C1793.97 95.5734 1788.65 94.3434 1783.87 94.3434C1778 94.3434 1770.76 100.083 1766.12 105.543L1751.4 90.6534ZM1784.31 142.263C1794 142.263 1800.56 148.963 1800.56 156.743C1800.56 164.523 1794.28 170.813 1784.31 170.813C1775.43 170.813 1768.74 163.813 1768.74 156.743C1768.71 149.883 1774.45 142.233 1784.28 142.233L1784.31 142.263Z" fill="white"/>
<path d="M1762.96 105.503H1766.11L1762.91 102.263L1762.96 105.503Z" fill="#1D4ED8"/>
<path d="M1787.46 457.114C1825.61 457.114 1856.54 455.39 1856.54 453.264C1856.54 451.138 1825.61 449.414 1787.46 449.414C1749.31 449.414 1718.38 451.138 1718.38 453.264C1718.38 455.39 1749.31 457.114 1787.46 457.114Z" fill="#1D4ED8"/>
<path d="M1800.99 301.294L1821.29 364.344C1822.57 368.321 1822.78 372.564 1821.9 376.648C1821.02 380.732 1819.09 384.513 1816.29 387.614L1770.86 437.924C1770.86 437.924 1770.73 452.324 1759.21 454.244L1752.48 411.024L1794.22 372.124L1800.99 301.294Z" fill="#A4A4A4"/>
<path opacity="0.33" d="M1801.94 304.254C1801.94 304.254 1812.29 381.014 1801.94 403.504C1793.54 383.864 1797.07 308.904 1801.94 304.254Z" fill="#4D3529"/>
<path d="M1768.81 302.654C1768.81 302.654 1757.81 325.564 1767.37 389.914L1776.97 454.264H1818.73C1818.73 454.264 1815.46 439.864 1803.9 437.464C1793.75 337.364 1801.56 320.314 1800.99 301.314C1778.4 299.134 1768.81 302.654 1768.81 302.654Z" fill="#ECEDEE"/>
<path d="M1776.97 454.244H1818.73C1818.73 454.244 1815.46 439.844 1803.9 437.444H1774.47L1776.97 454.244Z" fill="#4D3529"/>
<path d="M1752.48 411.024L1759.21 454.244C1770.73 452.324 1770.86 437.924 1770.86 437.924L1764.26 400.054L1752.48 411.024Z" fill="#4D3529"/>
<g style="mix-blend-mode:overlay" opacity="0.41">
<g style="mix-blend-mode:overlay" opacity="0.41">
<path d="M1800.99 301.294C1799.15 301.114 1797.41 300.984 1795.74 300.874L1785.9 301.294C1785.9 301.294 1775.16 405.454 1803.9 437.444C1793.75 337.344 1801.56 320.294 1800.99 301.294Z" fill="white"/>
</g>
<g style="mix-blend-mode:overlay" opacity="0.41">
<path d="M1803.9 437.444C1807.06 440.954 1809.82 442.384 1812.21 442.144C1809.98 439.768 1807.08 438.129 1803.9 437.444Z" fill="white"/>
</g>
</g>
<path d="M1797.58 200.133C1797.58 200.133 1792.31 196.133 1785.9 197.533C1779.49 198.933 1770.84 206.883 1769.97 225.223C1769.1 243.563 1772.22 249.793 1775.85 249.793C1779.48 249.793 1788.66 230.593 1788.66 230.593L1792.4 212.763C1792.4 212.763 1797.67 202.893 1797.58 200.133Z" fill="#3730A3"/>
<g style="mix-blend-mode:multiply">
<path d="M1785.9 197.533C1779.49 198.923 1770.84 206.883 1769.97 225.223C1769.48 235.663 1770.28 242.223 1771.73 245.853C1773.03 245.223 1773.83 243.853 1773.37 241.263C1771.91 232.913 1775.05 214.103 1782.3 207.413C1786.62 203.413 1788.16 199.653 1788.7 197.253C1787.76 197.245 1786.82 197.339 1785.9 197.533Z" fill="#3730A3"/>
</g>
<path d="M1785.9 228.533L1767.4 239.843L1768.81 302.653C1768.81 302.653 1782.74 307.073 1800.99 301.313L1799.79 266.493C1799.79 266.493 1804.35 261.493 1803.87 249.813C1803.39 238.133 1799.4 230.853 1799.4 230.853L1792.4 228.463L1785.9 228.533Z" fill="#C73C27"/>
<path d="M1767.4 239.844C1767.4 239.844 1773.4 241.504 1773.4 251.464V281.584H1814.94V284.764C1814.94 287.294 1813.93 289.721 1812.14 291.51C1810.35 293.299 1807.93 294.304 1805.4 294.304H1765.6C1763.9 294.304 1762.28 293.631 1761.08 292.432C1759.88 291.234 1759.21 289.609 1759.21 287.914V250.914C1759.21 250.914 1760.17 242.944 1767.4 239.844Z" fill="#F7A89C"/>
<path d="M1773.37 281.584H1768.35" stroke="#983533" stroke-width="0.87" stroke-miterlimit="10"/>
<g style="mix-blend-mode:multiply" opacity="0.2">
<path d="M1787.59 232.763L1787.5 228.523H1785.9L1767.4 239.843C1760.2 242.943 1759.24 250.893 1759.24 250.893V287.893C1759.24 289.009 1759.53 290.106 1760.09 291.073C1765.46 281.473 1763.7 253.423 1765.09 249.773C1766.67 245.363 1787.59 232.763 1787.59 232.763Z" fill="#34251E"/>
</g>
<path d="M1797.58 200.133C1797.58 200.133 1804.58 207.183 1801.96 221.783L1794.4 222.953V239.843C1794.4 239.843 1785.93 238.523 1785.93 230.593V211.653C1785.93 211.653 1795.24 207.653 1797.58 200.133Z" fill="#F7A89C"/>
<path d="M1797.31 209.993C1795.65 209.914 1794 210.211 1792.47 210.863" stroke="#4D3529" stroke-width="1.03" stroke-miterlimit="10"/>
<path d="M1794.4 222.953L1789.9 223.663C1789.9 223.663 1791.98 229.553 1794.9 230.593L1794.4 222.953Z" fill="#4D3529"/>
<path d="M1784.51 219.163C1786.8 219.163 1788.66 217.305 1788.66 215.013C1788.66 212.721 1786.8 210.863 1784.51 210.863C1782.22 210.863 1780.36 212.721 1780.36 215.013C1780.36 217.305 1782.22 219.163 1784.51 219.163Z" fill="#F7A89C"/>
<path d="M1797.31 206.533C1797.31 206.533 1794.25 206.003 1792.47 207.413" stroke="#0C0968" stroke-width="1.03" stroke-miterlimit="10" stroke-linecap="round"/>
<path d="M1773.37 248.634L1779.38 281.584H1773.37V248.634Z" fill="#34251E"/>
<g style="mix-blend-mode:overlay" opacity="0.41">
<path d="M1799.79 266.474C1799.79 266.474 1784.58 276.364 1787.06 276.364C1789.54 276.364 1800.06 274.644 1800.06 274.644L1799.79 266.474Z" fill="white"/>
</g>
<g style="mix-blend-mode:overlay" opacity="0.26">
<path d="M1790.69 197.403C1789.99 203.143 1789.15 216.543 1795.26 222.813L1801.96 221.813C1804.58 207.213 1797.58 200.163 1797.58 200.163C1795.52 198.731 1793.16 197.788 1790.69 197.403Z" fill="white"/>
</g>
<path d="M1787.06 220.153C1787.06 220.576 1786.93 220.99 1786.7 221.342C1786.46 221.694 1786.13 221.968 1785.74 222.13C1785.35 222.292 1784.92 222.334 1784.5 222.252C1784.09 222.169 1783.7 221.965 1783.4 221.666C1783.11 221.367 1782.9 220.985 1782.82 220.57C1782.74 220.155 1782.78 219.725 1782.94 219.334C1783.1 218.943 1783.38 218.609 1783.73 218.373C1784.08 218.138 1784.49 218.013 1784.92 218.013C1785.49 218.013 1786.03 218.238 1786.43 218.64C1786.83 219.041 1787.06 219.585 1787.06 220.153Z" fill="#4D3529"/>
<path d="M1808.06 440.984C1808.06 441.3 1807.93 441.602 1807.71 441.826C1807.49 442.049 1807.18 442.174 1806.87 442.174H1788.64C1788.48 442.174 1788.33 442.143 1788.18 442.083C1788.04 442.023 1787.91 441.936 1787.8 441.825C1787.69 441.714 1787.6 441.583 1787.54 441.439C1787.49 441.294 1787.46 441.14 1787.46 440.984C1787.46 440.671 1787.58 440.371 1787.8 440.15C1788.02 439.928 1788.32 439.804 1788.64 439.804H1806.87C1807.02 439.803 1807.18 439.832 1807.32 439.891C1807.47 439.95 1807.6 440.036 1807.71 440.146C1807.82 440.256 1807.91 440.386 1807.97 440.53C1808.03 440.674 1808.06 440.828 1808.06 440.984Z" fill="#3B82F6"/>
<path opacity="0.49" d="M1776.4 303.324C1776.4 303.324 1769.16 373.874 1783.73 439.804" stroke="#4D3529" stroke-width="1.03" stroke-miterlimit="10"/>
<path d="M1802.23 213.173L1800.33 213.653C1800.33 213.653 1802.17 214.853 1802.23 213.173Z" fill="#4D3529"/>
<path d="M1799.77 222.113C1799.77 222.113 1799.77 219.113 1800.14 218.693L1801.14 221.913L1799.77 222.113Z" fill="#EF7D6E"/>
<path d="M1799.4 230.853C1800.86 228.293 1802.53 225.223 1802.53 225.223L1800.12 219.623C1800.05 219.48 1800.02 219.325 1800.02 219.168C1800.02 219.011 1800.05 218.856 1800.12 218.713C1800.19 218.547 1800.3 218.401 1800.44 218.286C1800.58 218.171 1800.74 218.092 1800.92 218.053C1801.09 218.015 1801.28 218.02 1801.45 218.067C1801.62 218.113 1801.78 218.201 1801.92 218.323L1810.08 225.543C1810.99 226.343 1811.66 227.382 1812.01 228.543L1825.18 273.653C1825.74 275.571 1825.55 277.63 1824.64 279.411C1823.73 281.192 1822.18 282.559 1820.3 283.233L1820.15 283.293C1819.14 283.653 1818.07 283.802 1817 283.732C1815.93 283.662 1814.88 283.373 1813.93 282.884C1812.98 282.395 1812.13 281.716 1811.45 280.888C1810.77 280.061 1810.26 279.103 1809.97 278.073L1798.51 238.353C1798.15 237.107 1798.04 235.801 1798.19 234.513C1798.35 233.225 1798.76 231.98 1799.4 230.853Z" fill="#F7A89C"/>
<path d="M1825.47 276.384C1824.32 275.509 1822.97 274.942 1821.54 274.734C1820.11 274.527 1818.65 274.687 1817.3 275.199C1815.95 275.712 1814.75 276.559 1813.82 277.662C1812.89 278.765 1812.26 280.088 1811.98 281.504C1813.03 282.546 1814.36 283.27 1815.8 283.592C1817.25 283.914 1818.75 283.821 1820.15 283.324L1820.3 283.264C1821.74 282.749 1823 281.822 1823.91 280.599C1824.83 279.376 1825.37 277.911 1825.47 276.384Z" fill="#EF7D6E"/>
<g style="mix-blend-mode:overlay" opacity="0.41">
<path d="M1810.1 254.253C1814.52 266.453 1821.18 273.253 1825.47 276.523C1825.54 275.566 1825.45 274.604 1825.18 273.683L1812.03 228.573C1811.68 227.412 1811.01 226.373 1810.1 225.573C1810.1 225.573 1803.12 235.013 1810.1 254.253Z" fill="white"/>
</g>
<path d="M1755.13 358.464C1755.13 358.464 1746.69 375.054 1733.13 371.124C1736.55 357.394 1755.13 358.464 1755.13 358.464Z" fill="#FCD34D"/>
<g style="mix-blend-mode:multiply">
<path d="M1721.06 348.724C1721.06 348.724 1719.46 367.274 1733.06 371.124C1737.4 357.654 1721.06 348.724 1721.06 348.724Z" fill="#F59E0B"/>
</g>
<path d="M1748.29 383.574C1748.29 383.574 1736.92 398.324 1724.29 391.944C1730.22 379.084 1748.29 383.574 1748.29 383.574Z" fill="#FCD34D"/>
<g style="mix-blend-mode:multiply">
<path d="M1716.6 367.704C1716.6 367.704 1711.6 385.634 1724.28 391.944C1731.02 379.484 1716.6 367.704 1716.6 367.704Z" fill="#F59E0B"/>
</g>
<path d="M1737.68 406.054C1737.68 406.054 1723.99 418.674 1712.61 410.254C1720.62 398.584 1737.68 406.054 1737.68 406.054Z" fill="#FCD34D"/>
<g style="mix-blend-mode:multiply">
<path d="M1709.12 385.074C1709.12 385.074 1701.12 401.914 1712.61 410.254C1721.34 399.114 1709.12 385.074 1709.12 385.074Z" fill="#F59E0B"/>
</g>
<path d="M1688.73 434.384C1688.73 434.384 1730.23 403.454 1737.73 351.044" stroke="#FCD34D" stroke-width="2.03" stroke-miterlimit="10" stroke-linecap="round"/>
<path d="M1740.59 329.654C1740.59 329.654 1748.27 346.654 1736.7 354.784C1728.14 343.514 1740.59 329.654 1740.59 329.654Z" fill="#FCD34D"/>
<path d="M1651.01 452.394C1651.01 452.394 1661.28 359.394 1701.8 351.034C1742.32 342.674 1706.58 405.654 1695.4 424.704C1684.22 443.754 1706.18 428.174 1719.4 418.024C1729.92 409.954 1733.4 457.194 1651.01 452.394Z" fill="#FCD34D"/>
<g style="mix-blend-mode:multiply">
<path d="M1680.68 384.734C1684.28 367.554 1713.68 351.064 1713.68 351.044C1710.79 350.044 1706.9 349.984 1701.78 351.044C1661.26 359.444 1650.99 452.404 1650.99 452.404C1652.56 452.504 1654.1 452.564 1655.61 452.624L1656.26 452.534C1698.87 446.054 1679.52 397.214 1680.68 384.734Z" fill="#F59E0B"/>
</g>
<g style="mix-blend-mode:multiply">
<path d="M1716.22 352.284C1716.22 352.284 1687.41 372.574 1672.72 432.404" stroke="#F59E0B" stroke-width="1.07" stroke-miterlimit="10"/>
</g>
<g style="mix-blend-mode:multiply">
<path d="M1719.4 418.024C1710.52 424.824 1697.72 434.024 1693.61 433.694C1698.61 442.024 1718.03 425.764 1724.61 419.904C1723.84 417.234 1721.8 416.174 1719.4 418.024Z" fill="#F59E0B"/>
</g>
<g style="mix-blend-mode:multiply">
<path d="M1714.86 386.344C1705.72 385.581 1696.52 386.84 1687.93 390.034" stroke="#F59E0B" stroke-width="1.07" stroke-miterlimit="10"/>
</g>
<path d="M1539.94 332.864C1539.94 332.864 1546.94 353.644 1563.48 351.374C1561.79 334.784 1539.94 332.864 1539.94 332.864Z" fill="#FCD34D"/>
<g style="mix-blend-mode:multiply">
<path d="M1581.32 327.314C1581.32 327.314 1580.02 349.214 1563.48 351.374C1560.74 334.924 1581.32 327.314 1581.32 327.314Z" fill="#F59E0B"/>
</g>
<path d="M1543.65 363.304C1543.65 363.304 1554.39 382.424 1570.21 377.134C1565.48 361.144 1543.65 363.304 1543.65 363.304Z" fill="#FCD34D"/>
<g style="mix-blend-mode:multiply">
<path d="M1583.28 350.194C1583.28 350.194 1586.06 371.954 1570.21 377.134C1564.48 361.474 1583.28 350.194 1583.28 350.194Z" fill="#F59E0B"/>
</g>
<path d="M1552.19 391.304C1552.19 391.304 1566 408.354 1580.7 400.474C1573.34 385.504 1552.19 391.304 1552.19 391.304Z" fill="#FCD34D"/>
<g style="mix-blend-mode:multiply">
<path d="M1589.05 371.714C1589.05 371.714 1595.45 392.714 1580.7 400.474C1572.4 386.004 1589.05 371.714 1589.05 371.714Z" fill="#F59E0B"/>
</g>
<path d="M1604.4 432.654C1604.4 432.654 1561.28 389.534 1561.48 327.164" stroke="#FCD34D" stroke-width="2.39" stroke-miterlimit="10" stroke-linecap="round"/>
<path d="M1561.8 301.774C1561.8 301.774 1549.96 320.234 1562.06 331.724C1573.96 320.034 1561.8 301.774 1561.8 301.774Z" fill="#FCD34D"/>
<path d="M1636.19 457.124C1675.86 457.124 1708.03 455.329 1708.03 453.114C1708.03 450.899 1675.86 449.104 1636.19 449.104C1596.51 449.104 1564.35 450.899 1564.35 453.114C1564.35 455.329 1596.51 457.124 1636.19 457.124Z" fill="#1D4ED8"/>
<path d="M1525.91 209.923C1554.67 176.653 1591.64 156.923 1632.73 156.923C1687.37 156.923 1730.5 185.673 1730.5 241.133C1730.5 294.543 1665.18 307.693 1665.18 332.343V354.933H1589.18L1588.77 322.073C1588.77 284.273 1654.09 262.913 1654.09 240.313C1654.09 224.703 1638.09 221.003 1623.69 221.003C1606.02 221.003 1584.25 238.263 1570.28 254.693L1525.91 209.923ZM1624.91 365.213C1654.08 365.213 1673.8 385.343 1673.8 408.763C1673.8 431.763 1654.9 451.083 1624.91 451.083C1598.21 451.083 1578.08 430.083 1578.08 408.763C1578.09 388.223 1595.34 365.213 1624.92 365.213H1624.91Z" fill="#3730A3"/>
<path d="M1535.4 209.923C1564.16 176.653 1601.14 156.923 1642.22 156.923C1696.86 156.923 1740 185.673 1740 241.133C1740 294.543 1674.67 307.693 1674.67 332.343V354.933H1598.67L1598.26 322.073C1598.26 284.273 1663.58 262.913 1663.58 240.313C1663.58 224.703 1647.58 221.003 1633.18 221.003C1615.52 221.003 1593.74 238.263 1579.77 254.693L1535.4 209.923ZM1634.4 365.213C1663.57 365.213 1683.29 385.343 1683.29 408.763C1683.29 431.763 1664.4 451.083 1634.4 451.083C1607.7 451.083 1587.57 430.083 1587.57 408.763C1587.57 388.223 1604.83 365.213 1634.4 365.213Z" fill="white"/>
<path d="M1570.28 254.704H1579.76L1570.11 244.964L1570.28 254.704Z" fill="#3730A3"/>
<g style="mix-blend-mode:multiply" opacity="0.66">
<path d="M1608.3 229.653L1601.7 179.123L1613.83 158.383C1603.73 159.913 1593.85 162.646 1584.4 166.523C1578.97 176.013 1572.25 190.473 1574.96 200.213C1579.3 215.803 1592.64 237.903 1592.64 237.903L1608.3 229.653Z" fill="#1D4ED8"/>
</g>
<g style="mix-blend-mode:multiply" opacity="0.66">
<path d="M1683.29 244.963C1683.29 244.963 1679.99 257.143 1672.56 252.033C1665.13 246.923 1653.56 235.823 1653.56 235.823L1665.85 189.823L1632.85 169.763L1639.4 156.933L1689.53 186.833L1683.29 244.963Z" fill="#1D4ED8"/>
</g>
<path d="M1640.16 150.963V169.773L1652.93 171.943L1676.93 185.283L1658.53 233.163L1682.94 248.233C1683.6 248.638 1684.36 248.858 1685.13 248.869C1685.9 248.88 1686.67 248.681 1687.34 248.294C1688.01 247.906 1688.56 247.345 1688.94 246.669C1689.32 245.993 1689.51 245.227 1689.49 244.453C1689.42 240.825 1688.84 237.225 1687.75 233.763L1704.15 191.453C1705.97 186.759 1705.99 181.557 1704.21 176.847C1702.44 172.136 1698.98 168.25 1694.51 165.933L1662.14 149.143L1640.16 150.963Z" fill="#C73C27"/>
<path d="M1658.56 233.163L1682.97 248.233C1683.63 248.638 1684.39 248.858 1685.16 248.869C1685.93 248.88 1686.7 248.681 1687.37 248.294C1688.04 247.906 1688.59 247.345 1688.97 246.669C1689.35 245.993 1689.54 245.227 1689.52 244.453C1689.45 240.825 1688.87 237.225 1687.78 233.763C1678.65 231.422 1670.3 226.729 1663.56 220.153L1658.56 233.163Z" fill="#F59E0B"/>
<path d="M1640.16 169.773H1632.92L1613.23 193.163L1620.23 240.433L1595.11 251.653C1594.55 251.905 1593.93 252.015 1593.32 251.975C1592.71 251.935 1592.11 251.746 1591.59 251.423C1591.06 251.101 1590.63 250.655 1590.31 250.125C1590 249.595 1589.83 248.997 1589.8 248.383C1589.47 244.087 1590.23 239.778 1592.01 235.853L1586.21 191.203C1585.84 188.404 1586.13 185.558 1587.04 182.886C1587.95 180.214 1589.46 177.787 1591.46 175.793L1618.15 149.103L1640.15 150.923L1640.16 169.773Z" fill="#C73C27"/>
<path d="M1620.2 240.433L1617.74 223.773C1604.98 237.713 1592.01 235.893 1592.01 235.893C1590.23 239.818 1589.47 244.127 1589.8 248.423C1589.83 249.037 1590 249.635 1590.31 250.165C1590.63 250.695 1591.06 251.141 1591.59 251.463C1592.11 251.786 1592.71 251.975 1593.32 252.015C1593.93 252.055 1594.55 251.945 1595.11 251.693L1620.2 240.433Z" fill="#F59E0B"/>
<path opacity="0.22" d="M1696.73 167.273C1694.94 169.164 1693.68 171.491 1693.07 174.022C1692.47 176.552 1692.53 179.198 1693.27 181.694C1694 184.191 1695.38 186.451 1697.26 188.249C1699.14 190.048 1701.46 191.321 1703.99 191.943L1704.18 191.453C1705.84 187.172 1706 182.457 1704.65 178.069C1703.3 173.682 1700.51 169.878 1696.73 167.273Z" fill="#ECEDEE"/>
<path opacity="0.22" d="M1599.18 184.103C1599.17 182.044 1598.67 180.018 1597.71 178.198C1596.74 176.378 1595.35 174.818 1593.66 173.653L1591.46 175.863C1589.46 177.857 1587.95 180.284 1587.04 182.956C1586.13 185.628 1585.84 188.474 1586.21 191.273L1586.93 196.813C1590.22 196.696 1593.34 195.305 1595.62 192.934C1597.91 190.563 1599.18 187.396 1599.18 184.103Z" fill="#ECEDEE"/>
<path d="M1662.17 149.143L1642.61 150.753C1640.88 157.213 1640.37 165.453 1640.22 169.753L1652.93 171.913L1667.93 180.223C1670.35 172.191 1674.18 164.649 1679.22 157.943L1662.17 149.143Z" fill="#34251E"/>
<path d="M1688.73 237.413C1688.48 236.223 1688.17 235.003 1687.78 233.763C1682.94 232.557 1678.31 230.654 1674.03 228.113C1675.1 231.133 1678.4 235.703 1688.73 237.413Z" fill="#34251E"/>
<path d="M1605.58 233.023C1597.87 236.703 1592.01 235.893 1592.01 235.893C1591.29 237.342 1590.75 238.873 1590.4 240.453C1595.01 240.153 1602.03 238.713 1605.58 233.023Z" fill="#34251E"/>
<path opacity="0.22" d="M1618.15 149.143L1591.46 175.833C1589.46 177.827 1587.95 180.254 1587.04 182.926C1586.13 185.598 1585.84 188.444 1586.21 191.243L1586.31 192.023C1608.02 188.653 1625.69 161.653 1632.2 150.303L1618.15 149.143Z" fill="#ECEDEE"/>
<path d="M1618.15 80.0434C1618.15 80.0434 1610.57 83.2234 1606.48 92.7734C1602.39 102.323 1596.12 122.593 1596.12 122.593L1618.12 114.133L1618.15 80.0434Z" fill="#D18E86"/>
<path d="M1640.16 71.4034L1618.16 80.0434V149.143C1618.16 149.143 1625.81 150.963 1640.16 150.963C1654.51 150.963 1662.16 149.143 1662.16 149.143V80.0434L1640.16 71.4034Z" fill="#F59E0B"/>
<path d="M1618.15 80.0434C1618.15 80.0434 1610.57 83.2234 1606.48 92.7734C1605.24 95.6634 1603.81 99.5334 1602.4 103.523C1606.58 104.463 1613.14 106.433 1618.15 110.153V80.0434Z" fill="#B45309"/>
<g style="mix-blend-mode:multiply">
<path d="M1642.09 85.0734L1618.15 134.143V113.973L1642.09 85.0734Z" fill="#F59E0B"/>
</g>
<g style="mix-blend-mode:multiply">
<path d="M1654.88 98.9234C1654.88 98.9234 1656.22 128.923 1654.88 135.723C1653.54 142.523 1649.48 151.393 1649.48 160.453C1649.48 169.513 1662.17 142.303 1662.17 142.303V114.973L1654.88 98.9234Z" fill="#F59E0B"/>
</g>
<path d="M1662.17 80.0434H1662.28C1665.65 81.563 1668.59 83.9092 1670.82 86.8651C1673.04 89.8209 1674.49 93.2907 1675.02 96.9534L1680.02 132.953C1680.66 137.493 1679.51 142.103 1676.82 145.813L1664.9 162.323V178.213C1664.89 178.69 1664.78 179.159 1664.56 179.584C1664.35 180.01 1664.04 180.381 1663.66 180.67C1663.28 180.959 1662.85 181.159 1662.38 181.253C1661.91 181.347 1661.43 181.333 1660.97 181.213C1656.41 180.023 1649.48 177.543 1649.48 173.433V160.433C1649.48 156.906 1650.46 153.448 1652.29 150.433L1662.17 134.153L1655.17 101.423C1655.17 101.423 1652.4 83.2234 1662.17 80.0434Z" fill="#F7A89C"/>
<path d="M1676.96 110.913L1675.02 97.0034C1674.49 93.3407 1673.04 89.8709 1670.82 86.9151C1668.59 83.9593 1665.65 81.613 1662.28 80.0934H1662.17C1652.39 83.2734 1655.17 101.463 1655.17 101.463L1657.67 113.063C1663.84 110.83 1670.45 110.093 1676.96 110.913Z" fill="#FCD34D"/>
<path d="M1673.53 138.233C1673.53 139.622 1673.86 140.992 1674.48 142.231C1675.11 143.47 1676.03 144.543 1677.15 145.363C1679.61 141.734 1680.64 137.318 1680.04 132.973L1679.61 129.823C1677.84 130.409 1676.3 131.536 1675.21 133.046C1674.12 134.555 1673.53 136.37 1673.53 138.233Z" fill="#EF7D6E"/>
<path d="M1662.17 134.143L1665.87 128.383" stroke="#983533" stroke-width="0.91" stroke-miterlimit="10"/>
<path d="M1640.21 78.5134H1640.1C1638.72 78.5108 1637.39 77.961 1636.42 76.9845C1635.44 76.008 1634.89 74.6844 1634.89 73.3034V64.6534H1645.4V73.3134C1645.39 74.6892 1644.84 76.0073 1643.87 76.981C1642.9 77.9548 1641.58 78.5055 1640.21 78.5134Z" fill="#F7A89C"/>
<path d="M1647.69 57.3934C1648.61 56.1289 1649.08 54.5885 1649.02 53.0234C1649.02 50.1834 1649.61 44.3434 1645.42 41.9034C1641.23 39.4634 1632.86 35.7334 1634.16 38.8234C1635.46 41.9134 1634.49 41.5034 1631.65 41.4134C1628.81 41.3234 1629.37 51.1434 1631.65 54.9734C1633.93 58.8034 1647.69 57.3934 1647.69 57.3934Z" fill="#4D3529"/>
<path d="M1634.89 57.7734C1634.84 58.2597 1634.64 58.7205 1634.34 59.0999C1634.03 59.4793 1633.61 59.7612 1633.15 59.9113C1632.68 60.0614 1632.18 60.0734 1631.71 59.9457C1631.24 59.8181 1630.82 59.5564 1630.49 59.1922C1630.16 58.828 1629.95 58.3769 1629.87 57.8937C1629.8 57.4104 1629.86 56.9157 1630.06 56.4693C1630.26 56.0229 1630.59 55.644 1631 55.3785C1631.41 55.1131 1631.89 54.9723 1632.38 54.9734C1633.08 55.0121 1633.74 55.3288 1634.21 55.8539C1634.68 56.3789 1634.93 57.0693 1634.89 57.7734Z" fill="#F7A89C"/>
<path d="M1645.4 57.7734C1645.45 58.2597 1645.64 58.7205 1645.95 59.0999C1646.26 59.4793 1646.67 59.7612 1647.14 59.9113C1647.6 60.0614 1648.1 60.0734 1648.57 59.9457C1649.05 59.8181 1649.47 59.5564 1649.8 59.1922C1650.12 58.828 1650.34 58.3769 1650.41 57.8937C1650.49 57.4104 1650.42 56.9157 1650.22 56.4693C1650.02 56.0229 1649.7 55.644 1649.29 55.3785C1648.88 55.1131 1648.4 54.9723 1647.91 54.9734C1647.2 55.0121 1646.54 55.3288 1646.07 55.8539C1645.6 56.3789 1645.36 57.0693 1645.4 57.7734Z" fill="#F7A89C"/>
<path d="M1640.23 69.1334H1640.08C1639.1 69.1334 1638.12 68.9398 1637.22 68.5636C1636.31 68.1875 1635.49 67.6362 1634.8 66.9414C1634.1 66.2465 1633.55 65.4218 1633.18 64.5144C1632.81 63.607 1632.62 62.6347 1632.62 61.6534V51.0734C1632.62 49.6367 1633.19 48.2597 1634.21 47.2438C1635.22 46.2279 1636.6 45.656 1638.04 45.6534H1642.27C1643.71 45.6561 1645.08 46.2293 1646.1 47.2473C1647.12 48.2654 1647.69 49.645 1647.69 51.0834V61.6534C1647.69 62.6347 1647.5 63.607 1647.13 64.5144C1646.75 65.4218 1646.2 66.2465 1645.51 66.9414C1644.82 67.6362 1643.99 68.1875 1643.09 68.5636C1642.18 68.9398 1641.21 69.1334 1640.23 69.1334Z" fill="#F7A89C"/>
<path d="M1634.89 64.6534V73.3134C1634.88 73.4566 1634.88 73.6002 1634.89 73.7434C1641.72 73.7434 1645.39 67.0434 1645.39 67.0434L1639.6 64.6534H1634.89Z" fill="#983533"/>
<path d="M1637.33 54.5734C1637.33 55.1534 1637.08 55.5734 1636.76 55.5734C1636.44 55.5734 1636.19 55.1034 1636.19 54.5734C1636.19 54.0434 1636.45 53.5134 1636.76 53.5134C1637.07 53.5134 1637.33 53.9834 1637.33 54.5734Z" fill="#4D3529"/>
<path d="M1638.22 51.0834C1637.7 50.8355 1637.13 50.7069 1636.55 50.7069C1635.98 50.7069 1635.41 50.8355 1634.89 51.0834" stroke="#4D3529" stroke-width="0.91" stroke-miterlimit="10" stroke-linecap="round"/>
<path d="M1643.55 55.6334C1643.86 55.6334 1644.12 55.1588 1644.12 54.5734C1644.12 53.988 1643.86 53.5134 1643.55 53.5134C1643.23 53.5134 1642.98 53.988 1642.98 54.5734C1642.98 55.1588 1643.23 55.6334 1643.55 55.6334Z" fill="#4D3529"/>
<path d="M1642.09 51.0834C1642.61 50.8355 1643.18 50.7069 1643.75 50.7069C1644.33 50.7069 1644.9 50.8355 1645.42 51.0834" stroke="#4D3529" stroke-width="0.91" stroke-miterlimit="10" stroke-linecap="round"/>
<path d="M1643.55 60.3334C1640.16 59.8034 1641.55 59.8034 1640.16 59.8034C1638.77 59.8034 1640.16 59.8034 1636.76 60.3334C1633.36 60.8634 1632.62 54.9734 1632.62 54.9734V61.6534C1632.62 63.6319 1633.4 65.5294 1634.8 66.9284C1636.2 68.3274 1638.1 69.1134 1640.08 69.1134H1640.23C1642.21 69.1134 1644.1 68.3274 1645.5 66.9284C1646.9 65.5294 1647.69 63.6319 1647.69 61.6534V54.9534C1647.69 54.9534 1646.94 60.8634 1643.55 60.3334Z" fill="#4D3529"/>
<path d="M1596.76 121.533L1637.18 65.4534C1637.3 65.2873 1637.45 65.1484 1637.63 65.0456C1637.81 64.9428 1638 64.8785 1638.21 64.8568C1638.41 64.8351 1638.62 64.8566 1638.81 64.9197C1639.01 64.9829 1639.19 65.0863 1639.34 65.2234C1639.57 65.4276 1639.73 65.7012 1639.8 66.0038C1639.86 66.3064 1639.83 66.6219 1639.7 66.9034L1637.18 72.5534L1639.54 74.6534C1641.24 76.1543 1642.34 78.2195 1642.64 80.4687C1642.94 82.7178 1642.42 84.9995 1641.17 86.8934L1611.52 131.763C1610.83 132.806 1609.92 133.69 1608.86 134.358C1607.81 135.027 1606.62 135.465 1605.38 135.643C1604.14 135.822 1602.88 135.737 1601.68 135.394C1600.47 135.051 1599.36 134.458 1598.4 133.653L1598.26 133.533C1596.54 132.093 1595.43 130.054 1595.15 127.828C1594.87 125.602 1595.45 123.353 1596.76 121.533Z" fill="#F7A89C"/>
<path d="M1597.96 123.653C1597.14 123.656 1596.32 123.756 1595.52 123.953C1594.97 125.636 1594.94 127.445 1595.43 129.146C1595.92 130.848 1596.9 132.365 1598.26 133.503L1598.4 133.623C1599.76 134.753 1601.42 135.451 1603.18 135.63C1604.94 135.808 1606.71 135.457 1608.27 134.623C1608.27 134.403 1608.27 134.183 1608.27 133.963C1608.26 131.231 1607.17 128.613 1605.24 126.681C1603.31 124.749 1600.69 123.661 1597.96 123.653Z" fill="#EF7D6E"/>
<path d="M1654.77 179.083V167.273" stroke="#983533" stroke-width="0.91" stroke-miterlimit="10"/>
<g style="mix-blend-mode:overlay" opacity="0.41">
<path d="M1676.84 145.833C1679.53 142.123 1680.68 137.513 1680.04 132.973L1675.04 96.9734C1674.28 91.7109 1671.64 86.9029 1667.6 83.4434C1666.6 87.8434 1665 99.1434 1668.18 118.443C1672.4 144.053 1664.92 162.293 1664.92 162.293L1676.84 145.833Z" fill="white"/>
</g>
<g style="mix-blend-mode:overlay" opacity="0.41">
<path d="M1650.45 57.7734C1650.46 57.2147 1650.31 56.6645 1650.01 56.1951C1649.7 55.7257 1649.26 55.3591 1648.75 55.1434C1648.93 54.4507 1649.02 53.7385 1649.02 53.0234C1649.02 50.1834 1649.61 44.3434 1645.42 41.9034L1645.26 41.8134C1645.17 43.2641 1644.78 44.6807 1644.12 45.9734C1643.29 48.2634 1640.18 63.2534 1644.12 68.0434C1645.22 67.3825 1646.13 66.4485 1646.76 65.3323C1647.39 64.216 1647.72 62.9556 1647.72 61.6734V60.5534H1647.96C1648.65 60.507 1649.3 60.1902 1649.77 59.6707C1650.23 59.1512 1650.48 58.4702 1650.45 57.7734Z" fill="white"/>
</g>
<g style="mix-blend-mode:overlay" opacity="0.41">
<path d="M1639.54 74.6534C1639.54 74.6534 1612.43 109.383 1613.74 128.403L1641.17 86.8934C1642.42 84.9995 1642.94 82.7179 1642.64 80.4687C1642.34 78.2195 1641.24 76.1543 1639.54 74.6534Z" fill="white"/>
</g>
<path d="M1643.2 111.183C1639.84 118.493 1625.53 131.823 1618.15 138.403V149.143C1643.05 142.113 1647.79 101.223 1643.2 111.183Z" fill="#FCD34D"/>
<path opacity="0.41" d="M1610.28 230.303L1605.58 191.943L1632.92 162.303H1642.98" stroke="#34251E" stroke-miterlimit="10"/>
<path opacity="0.41" d="M1667.42 170.583L1684.76 181.343L1668.96 224.783" stroke="#34251E" stroke-miterlimit="10"/>
</g>
<defs>
<linearGradient id="paint0_linear" x1="2000" y1="500" x2="1764.71" y2="-441.176" gradientUnits="userSpaceOnUse">
<stop stop-color="#3B82F6"/>
<stop offset="1" stop-color="#93C5FD"/>
</linearGradient>
<clipPath id="clip0">
<rect width="2000" height="500" fill="white"/>
</clipPath>
</defs>
</svg>
